<svg width="557" height="384" viewBox="0 0 557 384" fill="none" xmlns="http://www.w3.org/2000/svg">
<path d="M80.2016 346.178C76.48 354.822 66.4563 358.811 57.813 355.09V355.09C49.1696 351.368 45.1797 341.345 48.9012 332.701L166.647 59.2345C170.368 50.5911 180.392 46.6012 189.035 50.3227V50.3227C197.679 54.0443 201.669 64.068 197.947 72.7113L80.2016 346.178Z" fill="url(#paint0_linear_121_136)"/>
<rect x="40.5286" y="258.139" width="34.0784" height="176.529" rx="17.0392" transform="rotate(-156.705 40.5286 258.139)" fill="url(#paint1_linear_121_136)"/>
<path d="M163.06 339.033C159.339 347.677 149.315 351.666 140.672 347.945V347.945C132.028 344.223 128.038 334.2 131.76 325.556L265.195 15.6501C268.917 7.00677 278.94 3.01686 287.584 6.73839V6.73839C296.227 10.4599 300.217 20.4836 296.495 29.127L163.06 339.033Z" fill="url(#paint2_linear_121_136)"/>
<rect x="231.94" y="358.036" width="34.0784" height="287.133" rx="17.0392" transform="rotate(-156.705 231.94 358.036)" fill="url(#paint3_linear_121_136)"/>
<rect x="311.124" y="346.795" width="34.0784" height="297.329" rx="17.0392" transform="rotate(-156.705 311.124 346.795)" fill="url(#paint4_linear_121_136)"/>
<rect x="392.746" y="355.426" width="34.0784" height="321.395" rx="17.0392" transform="rotate(-156.705 392.746 355.426)" fill="url(#paint5_linear_121_136)"/>
<g filter="url(#filter0_di_121_136)">
<rect x="4.604" y="128.523" width="548" height="247" rx="20" fill="#FCFDFC"/>
</g>
<g filter="url(#filter1_di_121_136)">
<circle cx="465.004" cy="246.122" r="25.3333" fill="#FCFDFC"/>
</g>
<path d="M459.861 243.979H456.741V245.359C456.874 245.212 457.061 245.092 457.301 244.999C457.541 244.905 457.801 244.859 458.081 244.859C458.581 244.859 458.994 244.972 459.321 245.199C459.654 245.425 459.897 245.719 460.051 246.079C460.204 246.439 460.281 246.829 460.281 247.249C460.281 248.029 460.061 248.649 459.621 249.109C459.181 249.562 458.561 249.789 457.761 249.789C457.227 249.789 456.764 249.699 456.371 249.519C455.977 249.332 455.674 249.075 455.461 248.749C455.247 248.422 455.131 248.045 455.111 247.619H456.781C456.821 247.825 456.917 247.999 457.071 248.139C457.224 248.272 457.434 248.339 457.701 248.339C458.014 248.339 458.247 248.239 458.401 248.039C458.554 247.839 458.631 247.572 458.631 247.239C458.631 246.912 458.551 246.662 458.391 246.489C458.231 246.315 457.997 246.229 457.691 246.229C457.464 246.229 457.277 246.285 457.131 246.399C456.984 246.505 456.887 246.649 456.841 246.829H455.191V242.479H459.861V243.979ZM461.055 244.549C461.081 243.835 461.315 243.285 461.755 242.899C462.195 242.512 462.791 242.319 463.545 242.319C464.045 242.319 464.471 242.405 464.825 242.579C465.185 242.752 465.455 242.989 465.635 243.289C465.821 243.589 465.915 243.925 465.915 244.299C465.915 244.739 465.805 245.099 465.585 245.379C465.365 245.652 465.108 245.839 464.815 245.939V245.979C465.195 246.105 465.495 246.315 465.715 246.609C465.935 246.902 466.045 247.279 466.045 247.739C466.045 248.152 465.948 248.519 465.755 248.839C465.568 249.152 465.291 249.399 464.925 249.579C464.565 249.759 464.135 249.849 463.635 249.849C462.835 249.849 462.195 249.652 461.715 249.259C461.241 248.865 460.991 248.272 460.965 247.479H462.625C462.631 247.772 462.715 248.005 462.875 248.179C463.035 248.345 463.268 248.429 463.575 248.429C463.835 248.429 464.035 248.355 464.175 248.209C464.321 248.055 464.395 247.855 464.395 247.609C464.395 247.289 464.291 247.059 464.085 246.919C463.885 246.772 463.561 246.699 463.115 246.699H462.795V245.309H463.115C463.455 245.309 463.728 245.252 463.935 245.139C464.148 245.019 464.255 244.809 464.255 244.509C464.255 244.269 464.188 244.082 464.055 243.949C463.921 243.815 463.738 243.749 463.505 243.749C463.251 243.749 463.061 243.825 462.935 243.979C462.815 244.132 462.745 244.322 462.725 244.549H461.055ZM466.679 244.329C466.679 243.789 466.833 243.372 467.139 243.079C467.453 242.785 467.856 242.639 468.349 242.639C468.843 242.639 469.243 242.785 469.549 243.079C469.856 243.372 470.009 243.789 470.009 244.329C470.009 244.869 469.856 245.285 469.549 245.579C469.243 245.872 468.843 246.019 468.349 246.019C467.856 246.019 467.453 245.872 467.139 245.579C466.833 245.285 466.679 244.869 466.679 244.329ZM473.469 242.749L469.619 249.789H467.969L471.819 242.749H473.469ZM468.339 243.639C468.019 243.639 467.859 243.869 467.859 244.329C467.859 244.782 468.019 245.009 468.339 245.009C468.493 245.009 468.613 244.952 468.699 244.839C468.786 244.725 468.829 244.555 468.829 244.329C468.829 243.869 468.666 243.639 468.339 243.639ZM471.439 248.209C471.439 247.669 471.593 247.252 471.899 246.959C472.206 246.665 472.606 246.519 473.099 246.519C473.593 246.519 473.993 246.665 474.299 246.959C474.606 247.252 474.759 247.669 474.759 248.209C474.759 248.749 474.606 249.165 474.299 249.459C473.993 249.752 473.593 249.899 473.099 249.899C472.606 249.899 472.206 249.752 471.899 249.459C471.593 249.165 471.439 248.749 471.439 248.209ZM473.089 247.519C472.936 247.519 472.816 247.575 472.729 247.689C472.649 247.802 472.609 247.975 472.609 248.209C472.609 248.662 472.769 248.889 473.089 248.889C473.243 248.889 473.363 248.832 473.449 248.719C473.536 248.605 473.579 248.435 473.579 248.209C473.579 247.982 473.536 247.812 473.449 247.699C473.363 247.579 473.243 247.519 473.089 247.519Z" fill="black" fill-opacity="0.4"/>
<circle cx="464.937" cy="245.855" r="57.3333" stroke="#90D263" stroke-opacity="0.5" stroke-width="12"/>
<path d="M500.671 200.789C527.833 224.456 529.625 260.335 506.968 285.047C485.867 306.518 452.834 311.456 425.671 287.789" stroke="#0085FF" stroke-width="12" stroke-linecap="round" stroke-linejoin="round"/>
<path d="M54.2746 309.43C54.6132 309.158 54.8786 308.935 55.0706 308.762C55.2626 308.586 55.4239 308.403 55.5546 308.214C55.6879 308.022 55.7546 307.834 55.7546 307.65C55.7546 307.477 55.7119 307.341 55.6266 307.242C55.5439 307.141 55.4092 307.09 55.2226 307.09C55.0412 307.09 54.8999 307.147 54.7986 307.262C54.6999 307.374 54.6466 307.525 54.6386 307.714H54.2866C54.2972 307.415 54.3879 307.185 54.5586 307.022C54.7292 306.859 54.9492 306.778 55.2186 306.778C55.4932 306.778 55.7106 306.854 55.8706 307.006C56.0332 307.158 56.1146 307.367 56.1146 307.634C56.1146 307.855 56.0479 308.071 55.9146 308.282C55.7839 308.49 55.6346 308.674 55.4666 308.834C55.2986 308.991 55.0839 309.175 54.8226 309.386H56.1986V309.69H54.2746V309.43ZM58.2333 307.146H56.8293V308.058C56.8907 307.973 56.9813 307.903 57.1013 307.85C57.2213 307.794 57.3507 307.766 57.4893 307.766C57.7107 307.766 57.8907 307.813 58.0293 307.906C58.168 307.997 58.2667 308.115 58.3253 308.262C58.3867 308.406 58.4173 308.559 58.4173 308.722C58.4173 308.914 58.3813 309.086 58.3093 309.238C58.2373 309.39 58.1267 309.51 57.9773 309.598C57.8307 309.686 57.648 309.73 57.4293 309.73C57.1493 309.73 56.9227 309.658 56.7493 309.514C56.576 309.37 56.4707 309.178 56.4333 308.938H56.7893C56.824 309.09 56.8973 309.209 57.0093 309.294C57.1213 309.379 57.2627 309.422 57.4333 309.422C57.644 309.422 57.8027 309.359 57.9093 309.234C58.016 309.106 58.0693 308.938 58.0693 308.73C58.0693 308.522 58.016 308.362 57.9093 308.25C57.8027 308.135 57.6453 308.078 57.4373 308.078C57.296 308.078 57.172 308.113 57.0653 308.182C56.9613 308.249 56.8853 308.341 56.8373 308.458H56.4933V306.826H58.2333V307.146ZM58.5911 307.482C58.5911 307.301 58.6457 307.157 58.7551 307.05C58.8644 306.941 59.0044 306.886 59.1751 306.886C59.3457 306.886 59.4857 306.941 59.5951 307.05C59.7044 307.157 59.7591 307.301 59.7591 307.482C59.7591 307.666 59.7044 307.813 59.5951 307.922C59.4857 308.029 59.3457 308.082 59.1751 308.082C59.0044 308.082 58.8644 308.029 58.7551 307.922C58.6457 307.813 58.5911 307.666 58.5911 307.482ZM60.9271 306.93L59.3071 309.722H58.9471L60.5671 306.93H60.9271ZM59.1751 307.11C59.0844 307.11 59.0124 307.142 58.9591 307.206C58.9084 307.267 58.8831 307.359 58.8831 307.482C58.8831 307.605 58.9084 307.698 58.9591 307.762C59.0124 307.826 59.0844 307.858 59.1751 307.858C59.2657 307.858 59.3377 307.826 59.3911 307.762C59.4444 307.695 59.4711 307.602 59.4711 307.482C59.4711 307.359 59.4444 307.267 59.3911 307.206C59.3377 307.142 59.2657 307.11 59.1751 307.11ZM60.1231 309.17C60.1231 308.986 60.1777 308.841 60.2871 308.734C60.3964 308.625 60.5364 308.57 60.7071 308.57C60.8777 308.57 61.0164 308.625 61.1231 308.734C61.2324 308.841 61.2871 308.986 61.2871 309.17C61.2871 309.351 61.2324 309.497 61.1231 309.606C61.0164 309.715 60.8777 309.77 60.7071 309.77C60.5364 309.77 60.3964 309.717 60.2871 309.61C60.1777 309.501 60.1231 309.354 60.1231 309.17ZM60.7031 308.798C60.6124 308.798 60.5404 308.83 60.4871 308.894C60.4337 308.955 60.4071 309.047 60.4071 309.17C60.4071 309.29 60.4337 309.382 60.4871 309.446C60.5404 309.507 60.6124 309.538 60.7031 309.538C60.7937 309.538 60.8657 309.507 60.9191 309.446C60.9724 309.382 60.9991 309.29 60.9991 309.17C60.9991 309.047 60.9724 308.955 60.9191 308.894C60.8657 308.83 60.7937 308.798 60.7031 308.798Z" fill="black" fill-opacity="0.5"/>
<path d="M109.299 307.114L108.187 309.722H107.819L108.947 307.15H107.403V306.838H109.299V307.114ZM111.316 307.146H109.912V308.058C109.974 307.973 110.064 307.903 110.184 307.85C110.304 307.794 110.434 307.766 110.572 307.766C110.794 307.766 110.974 307.813 111.112 307.906C111.251 307.997 111.35 308.115 111.408 308.262C111.47 308.406 111.5 308.559 111.5 308.722C111.5 308.914 111.464 309.086 111.392 309.238C111.32 309.39 111.21 309.51 111.06 309.598C110.914 309.686 110.731 309.73 110.512 309.73C110.232 309.73 110.006 309.658 109.832 309.514C109.659 309.37 109.554 309.178 109.516 308.938H109.872C109.907 309.09 109.98 309.209 110.092 309.294C110.204 309.379 110.346 309.422 110.516 309.422C110.727 309.422 110.886 309.359 110.992 309.234C111.099 309.106 111.152 308.938 111.152 308.73C111.152 308.522 111.099 308.362 110.992 308.25C110.886 308.135 110.728 308.078 110.52 308.078C110.379 308.078 110.255 308.113 110.148 308.182C110.044 308.249 109.968 308.341 109.92 308.458H109.576V306.826H111.316V307.146ZM111.674 307.482C111.674 307.301 111.729 307.157 111.838 307.05C111.947 306.941 112.087 306.886 112.258 306.886C112.429 306.886 112.569 306.941 112.678 307.05C112.787 307.157 112.842 307.301 112.842 307.482C112.842 307.666 112.787 307.813 112.678 307.922C112.569 308.029 112.429 308.082 112.258 308.082C112.087 308.082 111.947 308.029 111.838 307.922C111.729 307.813 111.674 307.666 111.674 307.482ZM114.01 306.93L112.39 309.722H112.03L113.65 306.93H114.01ZM112.258 307.11C112.167 307.11 112.095 307.142 112.042 307.206C111.991 307.267 111.966 307.359 111.966 307.482C111.966 307.605 111.991 307.698 112.042 307.762C112.095 307.826 112.167 307.858 112.258 307.858C112.349 307.858 112.421 307.826 112.474 307.762C112.527 307.695 112.554 307.602 112.554 307.482C112.554 307.359 112.527 307.267 112.474 307.206C112.421 307.142 112.349 307.11 112.258 307.11ZM113.206 309.17C113.206 308.986 113.261 308.841 113.37 308.734C113.479 308.625 113.619 308.57 113.79 308.57C113.961 308.57 114.099 308.625 114.206 308.734C114.315 308.841 114.37 308.986 114.37 309.17C114.37 309.351 114.315 309.497 114.206 309.606C114.099 309.715 113.961 309.77 113.79 309.77C113.619 309.77 113.479 309.717 113.37 309.61C113.261 309.501 113.206 309.354 113.206 309.17ZM113.786 308.798C113.695 308.798 113.623 308.83 113.57 308.894C113.517 308.955 113.49 309.047 113.49 309.17C113.49 309.29 113.517 309.382 113.57 309.446C113.623 309.507 113.695 309.538 113.786 309.538C113.877 309.538 113.949 309.507 114.002 309.446C114.055 309.382 114.082 309.29 114.082 309.17C114.082 309.047 114.055 308.955 114.002 308.894C113.949 308.83 113.877 308.798 113.786 308.798Z" fill="black" fill-opacity="0.5"/>
<path d="M160.623 307.162V306.83H161.375V309.722H161.007V307.162H160.623ZM161.77 308.246C161.77 307.787 161.845 307.43 161.994 307.174C162.143 306.915 162.405 306.786 162.778 306.786C163.149 306.786 163.409 306.915 163.558 307.174C163.707 307.43 163.782 307.787 163.782 308.246C163.782 308.713 163.707 309.075 163.558 309.334C163.409 309.593 163.149 309.722 162.778 309.722C162.405 309.722 162.143 309.593 161.994 309.334C161.845 309.075 161.77 308.713 161.77 308.246ZM163.422 308.246C163.422 308.014 163.406 307.818 163.374 307.658C163.345 307.495 163.282 307.365 163.186 307.266C163.093 307.167 162.957 307.118 162.778 307.118C162.597 307.118 162.458 307.167 162.362 307.266C162.269 307.365 162.206 307.495 162.174 307.658C162.145 307.818 162.13 308.014 162.13 308.246C162.13 308.486 162.145 308.687 162.174 308.85C162.206 309.013 162.269 309.143 162.362 309.242C162.458 309.341 162.597 309.39 162.778 309.39C162.957 309.39 163.093 309.341 163.186 309.242C163.282 309.143 163.345 309.013 163.374 308.85C163.406 308.687 163.422 308.486 163.422 308.246ZM164.052 308.246C164.052 307.787 164.126 307.43 164.276 307.174C164.425 306.915 164.686 306.786 165.06 306.786C165.43 306.786 165.69 306.915 165.84 307.174C165.989 307.43 166.064 307.787 166.064 308.246C166.064 308.713 165.989 309.075 165.84 309.334C165.69 309.593 165.43 309.722 165.06 309.722C164.686 309.722 164.425 309.593 164.276 309.334C164.126 309.075 164.052 308.713 164.052 308.246ZM165.704 308.246C165.704 308.014 165.688 307.818 165.656 307.658C165.626 307.495 165.564 307.365 165.468 307.266C165.374 307.167 165.238 307.118 165.06 307.118C164.878 307.118 164.74 307.167 164.644 307.266C164.55 307.365 164.488 307.495 164.456 307.658C164.426 307.818 164.412 308.014 164.412 308.246C164.412 308.486 164.426 308.687 164.456 308.85C164.488 309.013 164.55 309.143 164.644 309.242C164.74 309.341 164.878 309.39 165.06 309.39C165.238 309.39 165.374 309.341 165.468 309.242C165.564 309.143 165.626 309.013 165.656 308.85C165.688 308.687 165.704 308.486 165.704 308.246ZM166.253 307.482C166.253 307.301 166.308 307.157 166.417 307.05C166.527 306.941 166.667 306.886 166.837 306.886C167.008 306.886 167.148 306.941 167.257 307.05C167.367 307.157 167.421 307.301 167.421 307.482C167.421 307.666 167.367 307.813 167.257 307.922C167.148 308.029 167.008 308.082 166.837 308.082C166.667 308.082 166.527 308.029 166.417 307.922C166.308 307.813 166.253 307.666 166.253 307.482ZM168.589 306.93L166.969 309.722H166.609L168.229 306.93H168.589ZM166.837 307.11C166.747 307.11 166.675 307.142 166.621 307.206C166.571 307.267 166.545 307.359 166.545 307.482C166.545 307.605 166.571 307.698 166.621 307.762C166.675 307.826 166.747 307.858 166.837 307.858C166.928 307.858 167 307.826 167.053 307.762C167.107 307.695 167.133 307.602 167.133 307.482C167.133 307.359 167.107 307.267 167.053 307.206C167 307.142 166.928 307.11 166.837 307.11ZM167.785 309.17C167.785 308.986 167.84 308.841 167.949 308.734C168.059 308.625 168.199 308.57 168.369 308.57C168.54 308.57 168.679 308.625 168.785 308.734C168.895 308.841 168.949 308.986 168.949 309.17C168.949 309.351 168.895 309.497 168.785 309.606C168.679 309.715 168.54 309.77 168.369 309.77C168.199 309.77 168.059 309.717 167.949 309.61C167.84 309.501 167.785 309.354 167.785 309.17ZM168.365 308.798C168.275 308.798 168.203 308.83 168.149 308.894C168.096 308.955 168.069 309.047 168.069 309.17C168.069 309.29 168.096 309.382 168.149 309.446C168.203 309.507 168.275 309.538 168.365 309.538C168.456 309.538 168.528 309.507 168.581 309.446C168.635 309.382 168.661 309.29 168.661 309.17C168.661 309.047 168.635 308.955 168.581 308.894C168.528 308.83 168.456 308.798 168.365 308.798Z" fill="black" fill-opacity="0.5"/>
<path d="M213.875 309.43C214.213 309.158 214.479 308.935 214.671 308.762C214.863 308.586 215.024 308.403 215.155 308.214C215.288 308.022 215.355 307.834 215.355 307.65C215.355 307.477 215.312 307.341 215.227 307.242C215.144 307.141 215.009 307.09 214.823 307.09C214.641 307.09 214.5 307.147 214.399 307.262C214.3 307.374 214.247 307.525 214.239 307.714H213.887C213.897 307.415 213.988 307.185 214.159 307.022C214.329 306.859 214.549 306.778 214.819 306.778C215.093 306.778 215.311 306.854 215.471 307.006C215.633 307.158 215.715 307.367 215.715 307.634C215.715 307.855 215.648 308.071 215.515 308.282C215.384 308.49 215.235 308.674 215.067 308.834C214.899 308.991 214.684 309.175 214.423 309.386H215.799V309.69H213.875V309.43ZM217.833 307.146H216.429V308.058C216.491 307.973 216.581 307.903 216.701 307.85C216.821 307.794 216.951 307.766 217.089 307.766C217.311 307.766 217.491 307.813 217.629 307.906C217.768 307.997 217.867 308.115 217.925 308.262C217.987 308.406 218.017 308.559 218.017 308.722C218.017 308.914 217.981 309.086 217.909 309.238C217.837 309.39 217.727 309.51 217.577 309.598C217.431 309.686 217.248 309.73 217.029 309.73C216.749 309.73 216.523 309.658 216.349 309.514C216.176 309.37 216.071 309.178 216.033 308.938H216.389C216.424 309.09 216.497 309.209 216.609 309.294C216.721 309.379 216.863 309.422 217.033 309.422C217.244 309.422 217.403 309.359 217.509 309.234C217.616 309.106 217.669 308.938 217.669 308.73C217.669 308.522 217.616 308.362 217.509 308.25C217.403 308.135 217.245 308.078 217.037 308.078C216.896 308.078 216.772 308.113 216.665 308.182C216.561 308.249 216.485 308.341 216.437 308.458H216.093V306.826H217.833V307.146ZM218.191 307.482C218.191 307.301 218.246 307.157 218.355 307.05C218.464 306.941 218.604 306.886 218.775 306.886C218.946 306.886 219.086 306.941 219.195 307.05C219.304 307.157 219.359 307.301 219.359 307.482C219.359 307.666 219.304 307.813 219.195 307.922C219.086 308.029 218.946 308.082 218.775 308.082C218.604 308.082 218.464 308.029 218.355 307.922C218.246 307.813 218.191 307.666 218.191 307.482ZM220.527 306.93L218.907 309.722H218.547L220.167 306.93H220.527ZM218.775 307.11C218.684 307.11 218.612 307.142 218.559 307.206C218.508 307.267 218.483 307.359 218.483 307.482C218.483 307.605 218.508 307.698 218.559 307.762C218.612 307.826 218.684 307.858 218.775 307.858C218.866 307.858 218.938 307.826 218.991 307.762C219.044 307.695 219.071 307.602 219.071 307.482C219.071 307.359 219.044 307.267 218.991 307.206C218.938 307.142 218.866 307.11 218.775 307.11ZM219.723 309.17C219.723 308.986 219.778 308.841 219.887 308.734C219.996 308.625 220.136 308.57 220.307 308.57C220.478 308.57 220.616 308.625 220.723 308.734C220.832 308.841 220.887 308.986 220.887 309.17C220.887 309.351 220.832 309.497 220.723 309.606C220.616 309.715 220.478 309.77 220.307 309.77C220.136 309.77 219.996 309.717 219.887 309.61C219.778 309.501 219.723 309.354 219.723 309.17ZM220.303 308.798C220.212 308.798 220.14 308.83 220.087 308.894C220.034 308.955 220.007 309.047 220.007 309.17C220.007 309.29 220.034 309.382 220.087 309.446C220.14 309.507 220.212 309.538 220.303 309.538C220.394 309.538 220.466 309.507 220.519 309.446C220.572 309.382 220.599 309.29 220.599 309.17C220.599 309.047 220.572 308.955 220.519 308.894C220.466 308.83 220.394 308.798 220.303 308.798Z" fill="black" fill-opacity="0.5"/>
<path d="M268.963 307.146H267.559V308.058C267.62 307.973 267.711 307.903 267.831 307.85C267.951 307.794 268.08 307.766 268.219 307.766C268.44 307.766 268.62 307.813 268.759 307.906C268.897 307.997 268.996 308.115 269.055 308.262C269.116 308.406 269.147 308.559 269.147 308.722C269.147 308.914 269.111 309.086 269.039 309.238C268.967 309.39 268.856 309.51 268.707 309.598C268.56 309.686 268.377 309.73 268.159 309.73C267.879 309.73 267.652 309.658 267.479 309.514C267.305 309.37 267.2 309.178 267.163 308.938H267.519C267.553 309.09 267.627 309.209 267.739 309.294C267.851 309.379 267.992 309.422 268.163 309.422C268.373 309.422 268.532 309.359 268.639 309.234C268.745 309.106 268.799 308.938 268.799 308.73C268.799 308.522 268.745 308.362 268.639 308.25C268.532 308.135 268.375 308.078 268.167 308.078C268.025 308.078 267.901 308.113 267.795 308.182C267.691 308.249 267.615 308.341 267.567 308.458H267.223V306.826H268.963V307.146ZM269.4 308.246C269.4 307.787 269.475 307.43 269.624 307.174C269.774 306.915 270.035 306.786 270.408 306.786C270.779 306.786 271.039 306.915 271.188 307.174C271.338 307.43 271.412 307.787 271.412 308.246C271.412 308.713 271.338 309.075 271.188 309.334C271.039 309.593 270.779 309.722 270.408 309.722C270.035 309.722 269.774 309.593 269.624 309.334C269.475 309.075 269.4 308.713 269.4 308.246ZM271.052 308.246C271.052 308.014 271.036 307.818 271.004 307.658C270.975 307.495 270.912 307.365 270.816 307.266C270.723 307.167 270.587 307.118 270.408 307.118C270.227 307.118 270.088 307.167 269.992 307.266C269.899 307.365 269.836 307.495 269.804 307.658C269.775 307.818 269.76 308.014 269.76 308.246C269.76 308.486 269.775 308.687 269.804 308.85C269.836 309.013 269.899 309.143 269.992 309.242C270.088 309.341 270.227 309.39 270.408 309.39C270.587 309.39 270.723 309.341 270.816 309.242C270.912 309.143 270.975 309.013 271.004 308.85C271.036 308.687 271.052 308.486 271.052 308.246ZM271.602 307.482C271.602 307.301 271.657 307.157 271.766 307.05C271.875 306.941 272.015 306.886 272.186 306.886C272.357 306.886 272.497 306.941 272.606 307.05C272.715 307.157 272.77 307.301 272.77 307.482C272.77 307.666 272.715 307.813 272.606 307.922C272.497 308.029 272.357 308.082 272.186 308.082C272.015 308.082 271.875 308.029 271.766 307.922C271.657 307.813 271.602 307.666 271.602 307.482ZM273.938 306.93L272.318 309.722H271.958L273.578 306.93H273.938ZM272.186 307.11C272.095 307.11 272.023 307.142 271.97 307.206C271.919 307.267 271.894 307.359 271.894 307.482C271.894 307.605 271.919 307.698 271.97 307.762C272.023 307.826 272.095 307.858 272.186 307.858C272.277 307.858 272.349 307.826 272.402 307.762C272.455 307.695 272.482 307.602 272.482 307.482C272.482 307.359 272.455 307.267 272.402 307.206C272.349 307.142 272.277 307.11 272.186 307.11ZM273.134 309.17C273.134 308.986 273.189 308.841 273.298 308.734C273.407 308.625 273.547 308.57 273.718 308.57C273.889 308.57 274.027 308.625 274.134 308.734C274.243 308.841 274.298 308.986 274.298 309.17C274.298 309.351 274.243 309.497 274.134 309.606C274.027 309.715 273.889 309.77 273.718 309.77C273.547 309.77 273.407 309.717 273.298 309.61C273.189 309.501 273.134 309.354 273.134 309.17ZM273.714 308.798C273.623 308.798 273.551 308.83 273.498 308.894C273.445 308.955 273.418 309.047 273.418 309.17C273.418 309.29 273.445 309.382 273.498 309.446C273.551 309.507 273.623 309.538 273.714 309.538C273.805 309.538 273.877 309.507 273.93 309.446C273.983 309.382 274.01 309.29 274.01 309.17C274.01 309.047 273.983 308.955 273.93 308.894C273.877 308.83 273.805 308.798 273.714 308.798Z" fill="black" fill-opacity="0.5"/>
<path d="M322.099 305.847L320.987 308.455H320.619L321.747 305.883H320.203V305.571H322.099V305.847ZM324.116 305.879H322.712V306.791C322.774 306.706 322.864 306.637 322.984 306.583C323.104 306.527 323.234 306.499 323.372 306.499C323.594 306.499 323.774 306.546 323.912 306.639C324.051 306.73 324.15 306.849 324.208 306.995C324.27 307.139 324.3 307.293 324.3 307.455C324.3 307.647 324.264 307.819 324.192 307.971C324.12 308.123 324.01 308.243 323.86 308.331C323.714 308.419 323.531 308.463 323.312 308.463C323.032 308.463 322.806 308.391 322.632 308.247C322.459 308.103 322.354 307.911 322.316 307.671H322.672C322.707 307.823 322.78 307.942 322.892 308.027C323.004 308.113 323.146 308.155 323.316 308.155C323.527 308.155 323.686 308.093 323.792 307.967C323.899 307.839 323.952 307.671 323.952 307.463C323.952 307.255 323.899 307.095 323.792 306.983C323.686 306.869 323.528 306.811 323.32 306.811C323.179 306.811 323.055 306.846 322.948 306.915C322.844 306.982 322.768 307.074 322.72 307.191H322.376V305.559H324.116V305.879ZM324.474 306.215C324.474 306.034 324.529 305.89 324.638 305.783C324.747 305.674 324.887 305.619 325.058 305.619C325.229 305.619 325.369 305.674 325.478 305.783C325.587 305.89 325.642 306.034 325.642 306.215C325.642 306.399 325.587 306.546 325.478 306.655C325.369 306.762 325.229 306.815 325.058 306.815C324.887 306.815 324.747 306.762 324.638 306.655C324.529 306.546 324.474 306.399 324.474 306.215ZM326.81 305.663L325.19 308.455H324.83L326.45 305.663H326.81ZM325.058 305.843C324.967 305.843 324.895 305.875 324.842 305.939C324.791 306.001 324.766 306.093 324.766 306.215C324.766 306.338 324.791 306.431 324.842 306.495C324.895 306.559 324.967 306.591 325.058 306.591C325.149 306.591 325.221 306.559 325.274 306.495C325.327 306.429 325.354 306.335 325.354 306.215C325.354 306.093 325.327 306.001 325.274 305.939C325.221 305.875 325.149 305.843 325.058 305.843ZM326.006 307.903C326.006 307.719 326.061 307.574 326.17 307.467C326.279 307.358 326.419 307.303 326.59 307.303C326.761 307.303 326.899 307.358 327.006 307.467C327.115 307.574 327.17 307.719 327.17 307.903C327.17 308.085 327.115 308.23 327.006 308.339C326.899 308.449 326.761 308.503 326.59 308.503C326.419 308.503 326.279 308.45 326.17 308.343C326.061 308.234 326.006 308.087 326.006 307.903ZM326.586 307.531C326.495 307.531 326.423 307.563 326.37 307.627C326.317 307.689 326.29 307.781 326.29 307.903C326.29 308.023 326.317 308.115 326.37 308.179C326.423 308.241 326.495 308.271 326.586 308.271C326.677 308.271 326.749 308.241 326.802 308.179C326.855 308.115 326.882 308.023 326.882 307.903C326.882 307.781 326.855 307.689 326.802 307.627C326.749 307.563 326.677 307.531 326.586 307.531Z" fill="black" fill-opacity="0.5"/>
<circle cx="59.1373" cy="320.655" r="6.33333" fill="#02C78B"/>
<circle cx="112.337" cy="320.655" r="6.33333" fill="#FF5732"/>
<circle cx="165.537" cy="320.655" r="6.33333" fill="#FF3532"/>
<circle cx="218.737" cy="320.655" r="6.33333" fill="#02C78B"/>
<circle cx="271.937" cy="320.655" r="6.33333" fill="#C79002"/>
<circle cx="325.137" cy="320.655" r="6.33333" fill="#FF5732"/>
<path d="M20.3582 177.522H372.004" stroke="black" stroke-opacity="0.1"/>
<path d="M17.3372 208.555H368.983" stroke="black" stroke-opacity="0.1"/>
<path d="M17.3372 240.222H368.983" stroke="black" stroke-opacity="0.1"/>
<path d="M17.3372 270.622H368.983" stroke="black" stroke-opacity="0.1"/>
<path d="M17.3372 301.655H368.983" stroke="black" stroke-opacity="0.1"/>
<rect x="52.804" y="177.522" width="12.6667" height="124.133" fill="#90D263" fill-opacity="0.5"/>
<rect x="52.804" y="269.989" width="12.6667" height="31.6667" fill="#EA8D14"/>
<rect x="106.004" y="177.522" width="12.6667" height="124.133" fill="#90D263" fill-opacity="0.5"/>
<rect x="106.004" y="207.922" width="12.6667" height="93.7333" fill="#EA8D14"/>
<rect x="159.605" y="177.525" width="12" height="124" fill="#90D263" fill-opacity="0.5"/>
<rect x="159.608" y="182.523" width="12" height="119" fill="#EA8D14"/>
<rect x="212.404" y="177.522" width="12.6667" height="124.133" fill="#90D263" fill-opacity="0.5"/>
<rect x="212.404" y="269.989" width="12.6667" height="31.6667" fill="#EA8D14"/>
<rect x="265.604" y="177.522" width="12.6667" height="124.133" fill="#90D263" fill-opacity="0.5"/>
<rect x="265.604" y="239.589" width="12.6667" height="62.0667" fill="#EA8D14"/>
<rect x="318.804" y="177.522" width="12.6667" height="124.133" fill="#90D263" fill-opacity="0.5"/>
<rect x="318.804" y="207.922" width="12.6667" height="93.7333" fill="#EA8D14"/>
<defs>
<filter id="filter0_di_121_136" x="0.604004" y="128.523" width="556" height="255" filterUnits="userSpaceOnUse" color-interpolation-filters="sRGB">
<feFlood flood-opacity="0" result="BackgroundImageFix"/>
<feColorMatrix in="SourceAlpha" type="matrix" values="0 0 0 0 0 0 0 0 0 0 0 0 0 0 0 0 0 0 127 0" result="hardAlpha"/>
<feOffset dy="4"/>
<feGaussianBlur stdDeviation="2"/>
<feComposite in2="hardAlpha" operator="out"/>
<feColorMatrix type="matrix" values="0 0 0 0 0 0 0 0 0 0 0 0 0 0 0 0 0 0 0.25 0"/>
<feBlend mode="normal" in2="BackgroundImageFix" result="effect1_dropShadow_121_136"/>
<feBlend mode="normal" in="SourceGraphic" in2="effect1_dropShadow_121_136" result="shape"/>
<feColorMatrix in="SourceAlpha" type="matrix" values="0 0 0 0 0 0 0 0 0 0 0 0 0 0 0 0 0 0 127 0" result="hardAlpha"/>
<feOffset/>
<feGaussianBlur stdDeviation="2"/>
<feComposite in2="hardAlpha" operator="arithmetic" k2="-1" k3="1"/>
<feColorMatrix type="matrix" values="0 0 0 0 0 0 0 0 0 0 0 0 0 0 0 0 0 0 0.25 0"/>
<feBlend mode="normal" in2="shape" result="effect2_innerShadow_121_136"/>
</filter>
<filter id="filter1_di_121_136" x="434.671" y="216.789" width="60.6667" height="60.6667" filterUnits="userSpaceOnUse" color-interpolation-filters="sRGB">
<feFlood flood-opacity="0" result="BackgroundImageFix"/>
<feColorMatrix in="SourceAlpha" type="matrix" values="0 0 0 0 0 0 0 0 0 0 0 0 0 0 0 0 0 0 127 0" result="hardAlpha"/>
<feOffset dy="1"/>
<feGaussianBlur stdDeviation="2.5"/>
<feComposite in2="hardAlpha" operator="out"/>
<feColorMatrix type="matrix" values="0 0 0 0 0 0 0 0 0 0 0 0 0 0 0 0 0 0 0.25 0"/>
<feBlend mode="normal" in2="BackgroundImageFix" result="effect1_dropShadow_121_136"/>
<feBlend mode="normal" in="SourceGraphic" in2="effect1_dropShadow_121_136" result="shape"/>
<feColorMatrix in="SourceAlpha" type="matrix" values="0 0 0 0 0 0 0 0 0 0 0 0 0 0 0 0 0 0 127 0" result="hardAlpha"/>
<feOffset/>
<feGaussianBlur stdDeviation="0.5"/>
<feComposite in2="hardAlpha" operator="arithmetic" k2="-1" k3="1"/>
<feColorMatrix type="matrix" values="0 0 0 0 0 0 0 0 0 0 0 0 0 0 0 0 0 0 0.25 0"/>
<feBlend mode="normal" in2="shape" result="effect2_innerShadow_121_136"/>
</filter>
<linearGradient id="paint0_linear_121_136" x1="-209.056" y1="339.804" x2="-77.8337" y2="35.0369" gradientUnits="userSpaceOnUse">
<stop offset="0.317708" stop-color="#C4C4C4" stop-opacity="0"/>
<stop offset="0.708333" stop-color="#CCB89D" stop-opacity="0.221374"/>
<stop offset="1" stop-color="#EA8D14"/>
</linearGradient>
<linearGradient id="paint1_linear_121_136" x1="58.4968" y1="251.862" x2="58.348" y2="434.669" gradientUnits="userSpaceOnUse">
<stop offset="0.119792" stop-color="#C4C4C4" stop-opacity="0"/>
<stop offset="0.40625" stop-color="#D0B38E" stop-opacity="0.309353"/>
<stop offset="0.723958" stop-color="#EA8D14"/>
</linearGradient>
<linearGradient id="paint2_linear_121_136" x1="145.046" y1="337.786" x2="291.958" y2="-3.42059" gradientUnits="userSpaceOnUse">
<stop offset="0.0520833" stop-color="#C4C4C4" stop-opacity="0"/>
<stop offset="0.364583" stop-color="#CDB799" stop-opacity="0.244444"/>
<stop offset="0.755208" stop-color="#EA8D14"/>
</linearGradient>
<linearGradient id="paint3_linear_121_136" x1="248.98" y1="358.036" x2="248.98" y2="645.17" gradientUnits="userSpaceOnUse">
<stop offset="0.203125" stop-color="#C4C4C4" stop-opacity="0"/>
<stop offset="1" stop-color="#EA8D14"/>
</linearGradient>
<linearGradient id="paint4_linear_121_136" x1="328.163" y1="346.795" x2="328.163" y2="644.124" gradientUnits="userSpaceOnUse">
<stop offset="0.203125" stop-color="#C4C4C4" stop-opacity="0"/>
<stop offset="1" stop-color="#EA8E15"/>
</linearGradient>
<linearGradient id="paint5_linear_121_136" x1="409.785" y1="355.426" x2="409.785" y2="676.821" gradientUnits="userSpaceOnUse">
<stop offset="0.203125" stop-color="#C4C4C4" stop-opacity="0"/>
<stop offset="1" stop-color="#EA8E15"/>
</linearGradient>
</defs>
</svg>
