<svg width="84" height="84" viewBox="0 0 84 84" fill="none" xmlns="http://www.w3.org/2000/svg">
<g style="mix-blend-mode:soft-light" filter="url(#filter0_f_162_50)">
<path d="M74.5752 74.5752C71.702 77.4484 68.0252 78.9518 62.7866 79.7204C57.4973 80.4963 50.8066 80.5 42 80.5C33.1934 80.5 26.5027 80.4963 21.2134 79.7204C15.9748 78.9518 12.298 77.4484 9.4248 74.5752C6.55163 71.702 5.04818 68.0252 4.27963 62.7866C3.50366 57.4973 3.5 50.8066 3.5 42C3.5 33.1934 3.50366 26.5027 4.27963 21.2134C5.04818 15.9748 6.55163 12.298 9.4248 9.4248C12.298 6.55163 15.9748 5.04818 21.2134 4.27963C26.5027 3.50366 33.1934 3.5 42 3.5C50.8066 3.5 57.4973 3.50366 62.7866 4.27963C68.0252 5.04818 71.702 6.55163 74.5752 9.4248C77.4484 12.298 78.9518 15.9748 79.7204 21.2134C80.4963 26.5027 80.5 33.1934 80.5 42C80.5 50.8066 80.4963 57.4973 79.7204 62.7866C78.9518 68.0252 77.4484 71.702 74.5752 74.5752Z" stroke="url(#paint0_linear_162_50)" stroke-width="3"/>
</g>
<path d="M42 82C59.5278 82 69.2717 82 75.6359 75.6359C82 69.2717 82 59.5278 82 42C82 24.4722 82 14.7283 75.6359 8.36414C69.2717 2 59.5278 2 42 2C24.4722 2 14.7283 2 8.36414 8.36414C2 14.7283 2 24.4722 2 42C2 59.5278 2 69.2717 8.36414 75.6359C14.7283 82 24.4722 82 42 82Z" fill="url(#paint1_linear_162_50)"/>
<g style="mix-blend-mode:overlay">
<path d="M42 82C59.5278 82 69.2717 82 75.6359 75.6359C82 69.2717 82 59.5278 82 42C82 24.4722 82 14.7283 75.6359 8.36414C69.2717 2 59.5278 2 42 2C24.4722 2 14.7283 2 8.36414 8.36414C2 14.7283 2 24.4722 2 42C2 59.5278 2 69.2717 8.36414 75.6359C14.7283 82 24.4722 82 42 82Z" fill="url(#paint2_linear_162_50)"/>
</g>
<g style="mix-blend-mode:overlay">
<path d="M42 82C59.5278 82 69.2717 82 75.6359 75.6359C82 69.2717 82 59.5278 82 42C82 24.4722 82 14.7283 75.6359 8.36414C69.2717 2 59.5278 2 42 2C24.4722 2 14.7283 2 8.36414 8.36414C2 14.7283 2 24.4722 2 42C2 59.5278 2 69.2717 8.36414 75.6359C14.7283 82 24.4722 82 42 82Z" fill="url(#paint3_linear_162_50)"/>
</g>
<path d="M46.7515 40.7205L47.3878 39.949L47.3878 39.949L46.7515 40.7205ZM46.7515 43.2796L47.3878 44.0511L47.3878 44.051L46.7515 43.2796ZM38.994 49.6772L39.6301 50.4488L39.6302 50.4487L38.994 49.6772ZM38.994 34.3228L39.6302 33.5513L39.6302 33.5513L38.994 34.3228ZM37.5323 21.5128L36.5605 21.2769L36.5605 21.2769L37.5323 21.5128ZM46.4677 21.5128L47.4395 21.2769L47.4395 21.2769L46.4677 21.5128ZM53.3275 24.3543L53.8478 25.2082L53.8478 25.2082L53.3275 24.3543ZM59.6459 30.6725L60.4998 31.1929L60.4998 31.1928L59.6459 30.6725ZM62.4872 37.5323L62.7231 36.5605L62.7231 36.5605L62.4872 37.5323ZM62.4872 46.4677L62.7231 47.4395L62.7231 47.4395L62.4872 46.4677ZM59.6459 53.3275L60.4999 52.8072L60.4998 52.8071L59.6459 53.3275ZM53.3275 59.6459L52.8071 60.4998L52.8072 60.4999L53.3275 59.6459ZM46.4677 62.4872L47.4395 62.7231L47.4395 62.7231L46.4677 62.4872ZM37.5323 62.4872L36.5605 62.7231L36.5605 62.7231L37.5323 62.4872ZM30.6725 59.6459L31.1928 60.4998L31.1929 60.4998L30.6725 59.6459ZM24.3543 53.3275L25.2082 53.8478L25.2082 53.8478L24.3543 53.3275ZM21.5128 46.4677L21.2769 47.4395L21.2769 47.4395L21.5128 46.4677ZM21.5128 37.5323L21.2769 36.5605L21.2769 36.5605L21.5128 37.5323ZM24.3543 30.6725L25.2082 30.1522L25.2082 30.1521L24.3543 30.6725ZM30.6725 24.3543L30.1522 25.2082L30.1522 25.2082L30.6725 24.3543ZM46.1153 41.492C46.406 41.7317 46.406 42.2683 46.1153 42.5081L47.3878 44.051C48.6485 43.0113 48.6485 40.9888 47.3878 39.949L46.1153 41.492ZM46.1153 42.5081L38.3577 48.9058L39.6302 50.4487L47.3878 44.0511L46.1153 42.5081ZM38.3578 48.9057C38.2155 49.023 38.0802 49.0222 37.9525 48.9519C37.8132 48.8754 37.6667 48.6954 37.6667 48.3977H35.6667C35.6667 49.4179 36.2043 50.2731 36.9889 50.7045C37.7851 51.1423 38.8134 51.1222 39.6301 50.4488L38.3578 48.9057ZM37.6667 48.3977V35.6023H35.6667V48.3977H37.6667ZM37.6667 35.6023C37.6667 35.3045 37.8132 35.1246 37.9525 35.048C38.0802 34.9778 38.2155 34.977 38.3578 35.0943L39.6302 33.5513C38.8134 32.8778 37.7851 32.8577 36.9889 33.2955C36.2042 33.7269 35.6667 34.5821 35.6667 35.6023H37.6667ZM38.3577 35.0943L46.1153 41.492L47.3878 39.949L39.6302 33.5513L38.3577 35.0943ZM38.504 21.7487C39.3938 18.0838 44.6062 18.0838 45.496 21.7487L47.4395 21.2769C46.0551 15.5744 37.9449 15.5744 36.5605 21.2769L38.504 21.7487ZM45.4959 21.7487C46.3901 25.4325 50.6105 27.1807 53.8478 25.2082L52.8071 23.5003C50.7265 24.768 48.0142 23.6444 47.4395 21.2769L45.4959 21.7487ZM53.8478 25.2082C57.0685 23.2458 60.7542 26.9315 58.7919 30.1522L60.4998 31.1928C63.553 26.1816 57.8184 20.4469 52.8071 23.5003L53.8478 25.2082ZM58.7919 30.1521C56.8192 33.3893 58.5676 37.6099 62.2513 38.504L62.7231 36.5605C60.3556 35.9858 59.232 33.2733 60.4998 31.1929L58.7919 30.1521ZM62.2513 38.504C65.9162 39.3938 65.9162 44.6062 62.2513 45.496L62.7231 47.4395C68.4256 46.0551 68.4256 37.9449 62.7231 36.5605L62.2513 38.504ZM62.2513 45.4959C58.5676 46.3901 56.8192 50.6105 58.7919 53.8478L60.4998 52.8071C59.232 50.7265 60.3556 48.0142 62.7231 47.4395L62.2513 45.4959ZM58.7919 53.8478C60.7542 57.0685 57.0685 60.7542 53.8478 58.7919L52.8072 60.4999C57.8184 63.553 63.553 57.8184 60.4999 52.8072L58.7919 53.8478ZM53.8478 58.7919C50.6105 56.8192 46.3901 58.5676 45.4959 62.2513L47.4395 62.7231C48.0142 60.3556 50.7265 59.232 52.8071 60.4998L53.8478 58.7919ZM45.496 62.2513C44.6062 65.9162 39.3938 65.9162 38.504 62.2513L36.5605 62.7231C37.9449 68.4256 46.0551 68.4256 47.4395 62.7231L45.496 62.2513ZM38.504 62.2513C37.6099 58.5676 33.3894 56.8192 30.1521 58.7919L31.1929 60.4998C33.2734 59.232 35.9858 60.3556 36.5605 62.7231L38.504 62.2513ZM30.1522 58.7919C26.9315 60.7542 23.2458 57.0685 25.2082 53.8478L23.5003 52.8071C20.4469 57.8184 26.1816 63.553 31.1928 60.4998L30.1522 58.7919ZM25.2082 53.8478C27.1807 50.6105 25.4325 46.3901 21.7487 45.4959L21.2769 47.4395C23.6444 48.0142 24.768 50.7265 23.5003 52.8071L25.2082 53.8478ZM21.7487 45.496C18.0838 44.6062 18.0838 39.3938 21.7487 38.504L21.2769 36.5605C15.5744 37.9449 15.5744 46.0551 21.2769 47.4395L21.7487 45.496ZM21.7487 38.504C25.4325 37.6099 27.1806 33.3893 25.2082 30.1522L23.5003 31.1928C24.768 33.2734 23.6444 35.9858 21.2769 36.5605L21.7487 38.504ZM25.2082 30.1521C23.2458 26.9315 26.9315 23.2458 30.1522 25.2082L31.1928 23.5003C26.1816 20.4469 20.4469 26.1816 23.5003 31.1928L25.2082 30.1521ZM30.1522 25.2082C33.3893 27.1806 37.6099 25.4325 38.504 21.7487L36.5605 21.2769C35.9858 23.6444 33.2734 24.768 31.1928 23.5003L30.1522 25.2082Z" fill="url(#paint4_linear_162_50)"/>
<defs>
<filter id="filter0_f_162_50" x="0" y="0" width="84" height="84" filterUnits="userSpaceOnUse" color-interpolation-filters="sRGB">
<feFlood flood-opacity="0" result="BackgroundImageFix"/>
<feBlend mode="normal" in="SourceGraphic" in2="BackgroundImageFix" result="shape"/>
<feGaussianBlur stdDeviation="1" result="effect1_foregroundBlur_162_50"/>
</filter>
<linearGradient id="paint0_linear_162_50" x1="82.6164" y1="2" x2="-5.70525" y2="72.3226" gradientUnits="userSpaceOnUse">
<stop stop-color="#22C55E"/>
<stop offset="1" stop-color="#5BFF04"/>
</linearGradient>
<linearGradient id="paint1_linear_162_50" x1="42" y1="2" x2="42" y2="82" gradientUnits="userSpaceOnUse">
<stop stop-color="white"/>
<stop offset="1" stop-color="#F6F8FA"/>
</linearGradient>
<linearGradient id="paint2_linear_162_50" x1="1.06173" y1="2" x2="22.9624" y2="95.7863" gradientUnits="userSpaceOnUse">
<stop stop-opacity="0"/>
<stop offset="0.605667" stop-opacity="0.0781197"/>
<stop offset="1" stop-opacity="0.26"/>
</linearGradient>
<linearGradient id="paint3_linear_162_50" x1="1.06173" y1="2" x2="22.9624" y2="95.7863" gradientUnits="userSpaceOnUse">
<stop offset="0.140625" stop-color="white" stop-opacity="0.26"/>
<stop offset="0.640625" stop-color="white" stop-opacity="0.0781197"/>
<stop offset="1" stop-color="white" stop-opacity="0"/>
</linearGradient>
<linearGradient id="paint4_linear_162_50" x1="18" y1="42" x2="66" y2="42" gradientUnits="userSpaceOnUse">
<stop stop-color="#73E49A"/>
<stop offset="0.989583" stop-color="#1BA049"/>
</linearGradient>
</defs>
</svg>
