<svg width="19" height="16" viewBox="0 0 19 16" fill="none" xmlns="http://www.w3.org/2000/svg">
<path d="M0.715375 4.8135L0.715369 4.8135C0.667084 4.96496 0.639325 5.0555 0.616952 5.18568C0.593571 5.32174 0.574482 5.51228 0.559929 5.85033C0.530682 6.52969 0.522145 7.73086 0.509358 10.1331L0.715375 4.8135ZM0.715375 4.8135L0.716085 4.81123M0.715375 4.8135L0.716085 4.81123M0.716085 4.81123C1.18709 3.30908 2.10261 2.21621 3.46072 1.51387C4.33627 1.06896 5.43544 0.722256 6.38979 0.586996C6.71057 0.552957 7.30879 0.510313 7.72279 0.501726C7.90254 0.499524 8.03306 0.499153 8.13328 0.502246C8.23569 0.505407 8.28651 0.5118 8.31221 0.517089C8.31268 0.517186 8.31312 0.517279 8.31355 0.51737C8.31999 0.523274 8.33103 0.533889 8.34826 0.551903C8.43207 0.639538 8.54205 0.870743 8.4833 1.6166L8.48328 1.6166L8.48292 1.62178C8.45848 1.97958 8.40668 2.06887 8.37076 2.11013C8.32218 2.16593 8.20642 2.24459 7.80671 2.36928C6.74092 2.68787 5.83528 3.06217 5.1327 3.48061C4.44027 3.893 3.89526 4.37778 3.62484 4.94113C3.43287 5.33148 3.40449 5.68906 3.40449 6.4402V7.37395V7.87395H3.90449H6.01364C6.98711 7.87395 7.496 7.87874 7.79353 7.90141C7.93956 7.91253 8.00836 7.92638 8.04358 7.93662C8.06736 7.94353 8.08107 7.94969 8.11423 7.97122L8.11421 7.97125L8.11978 7.97476C8.27984 8.07568 8.30204 8.09727 8.31759 8.11847C8.32755 8.13204 8.36582 8.18932 8.39726 8.4146C8.46334 8.88812 8.46475 9.78098 8.46475 11.687C8.46475 13.593 8.46334 14.4858 8.39726 14.9594C8.36582 15.1846 8.32755 15.2419 8.31759 15.2555C8.30204 15.2767 8.27984 15.2983 8.11978 15.3992L8.11971 15.3991L8.11036 15.4053L8.10797 15.4069C8.08569 15.4216 8.08002 15.4254 8.04357 15.4337C7.98134 15.4479 7.86256 15.4635 7.61204 15.475C7.1152 15.4976 6.22025 15.5 4.49131 15.5H1.02729L0.867916 15.3873L0.867923 15.3873M0.716085 4.81123L0.867923 15.3873M0.867923 15.3873L0.865106 15.3853M0.867923 15.3873L0.865106 15.3853M0.865106 15.3853C0.673761 15.2519 0.664061 15.2446 0.646049 15.2172M0.865106 15.3853L0.646049 15.2172M3.23262 8.48555L3.49428 8.05948C3.38085 7.98983 3.32446 7.94172 3.28995 7.9014C3.26032 7.86679 3.23178 7.82053 3.20678 7.73184C3.14679 7.51906 3.12829 7.15687 3.14567 6.40733L3.14568 6.4066C3.16286 5.61637 3.20306 5.22726 3.31096 4.93238C3.41248 4.65494 3.58882 4.42128 4.00896 3.98635L4.0107 3.98454C4.59775 3.3707 5.67183 2.74634 6.97578 2.29761L6.97579 2.29763L6.98025 2.29604C7.22645 2.2087 7.45974 2.11745 7.63793 2.03881C7.72555 2.00014 7.80917 1.96044 7.87697 1.92264C7.90956 1.90448 7.95094 1.87992 7.99066 1.8501C8.01028 1.83537 8.03982 1.81172 8.07025 1.77953C8.09374 1.75468 8.1562 1.68551 8.19095 1.5765C8.22716 1.4629 8.2281 1.32836 8.17106 1.19929C8.11902 1.08153 8.03703 1.00964 7.98017 0.970342C7.87603 0.898376 7.76511 0.872987 7.70946 0.862051C7.57992 0.836593 7.42343 0.832286 7.27321 0.835856C6.96018 0.843295 6.54277 0.889316 6.10474 0.96793C4.70907 1.21358 3.55425 1.67681 2.67163 2.3825C1.7822 3.09362 1.195 4.03077 0.91047 5.17208L0.910447 5.17207L0.909326 5.17676C0.844613 5.44743 0.812794 5.81865 0.793738 6.54152C0.774401 7.27507 0.768051 8.41103 0.768051 10.2374V14.6661V15.1661H1.26805H7.73158H8.23158V14.6661V8.71677V8.22308L7.73793 8.21681L5.63784 8.19014C5.63768 8.19014 5.63753 8.19013 5.63737 8.19013C5.63734 8.19013 5.63731 8.19013 5.63728 8.19013C4.66437 8.17668 4.15235 8.16555 3.84925 8.13966C3.58789 8.11733 3.54218 8.08908 3.49956 8.06274C3.49708 8.0612 3.49461 8.05968 3.49211 8.05816L3.23262 8.48555ZM3.23262 8.48555C3.49627 8.64563 3.70038 8.66341 5.63093 8.69009L3.64935 3.63896C2.79889 4.51935 2.67982 4.8306 2.6458 6.39574C2.61178 7.86306 2.69683 8.15652 3.23262 8.48555ZM13.7451 0.794105C11.8172 1.63047 10.5888 3.07188 10.1196 5.05603C10.0257 5.43862 10.0002 6.57751 10.0002 10.3501L10.0001 10.9753C9.99931 14.7518 9.99919 15.3522 10.2986 15.631C10.3552 15.6838 10.4225 15.725 10.5026 15.774C10.5272 15.7891 10.5531 15.8049 10.5802 15.822C10.8191 15.9733 11.0153 16 12.0646 16C13.2674 16 13.2759 16 13.4465 15.7687C13.7366 15.3861 13.6683 15.0035 13.2759 14.7988C13.1138 14.7099 12.7641 14.6654 12.1328 14.6654H11.7371H11.2371V14.1654V10.2789C11.2371 6.73766 11.2627 5.79452 11.3651 5.34075C11.7489 3.66801 12.9006 2.45795 14.7432 1.81732C15.1686 1.67122 15.8275 1.51854 16.4109 1.42132L13.1248 15.304L13.1248 15.3042L13.1248 15.3043L13.1249 15.3057C13.125 15.3067 13.125 15.3086 13.1248 15.3112C13.1244 15.3164 13.1232 15.3256 13.1191 15.3389C13.1108 15.3662 13.0912 15.4097 13.0481 15.4666L13.0481 15.4666L13.0441 15.4719C13.0417 15.4752 13.0393 15.4784 13.0371 15.4813M13.7451 0.794105L13.9407 1.25428C13.9412 1.25404 13.9418 1.25379 13.9424 1.25355M13.7451 0.794105L13.9441 1.2528C13.9435 1.25305 13.943 1.2533 13.9424 1.25355M13.7451 0.794105C14.4361 0.500487 15.5621 0.189073 16.3896 0.0734047M13.9424 1.25355C12.1545 2.02972 11.0375 3.34697 10.6062 5.17109L10.6052 5.17513L10.6052 5.17513C10.5739 5.30259 10.543 5.62346 10.5246 6.44308C10.5066 7.24075 10.5002 8.46321 10.5002 10.3501C10.5002 10.5525 10.5001 10.7467 10.5001 10.9331C10.4997 13.2324 10.4996 14.3284 10.5603 14.8982C10.576 15.0459 10.5941 15.1379 10.6109 15.1961C10.619 15.224 10.6259 15.241 10.6303 15.2506C10.6319 15.2539 10.6332 15.2564 10.6341 15.2582C10.6345 15.2589 10.6349 15.2595 10.6352 15.26L10.6368 15.2625C10.638 15.2641 10.6389 15.2654 10.6398 15.2666C10.6475 15.276 10.6602 15.2811 10.8473 15.3993L10.8477 15.3996C10.8508 15.4015 10.8537 15.4034 10.8566 15.4053C10.9418 15.46 11.004 15.5 12.0646 15.5C12.6567 15.5 12.9083 15.4983 13.0371 15.4813M13.9424 1.25355C14.5903 0.978503 15.6703 0.679233 16.4555 0.569058M13.0371 15.4813C13.0155 15.5105 13.0071 15.5202 13.0073 15.5204C13.0075 15.5205 13.0162 15.511 13.0287 15.5017C13.0401 15.4932 13.0505 15.4871 13.059 15.4828C13.0613 15.4817 13.0634 15.4806 13.0654 15.4797C13.074 15.4758 13.0792 15.4742 13.0792 15.4742C13.0792 15.4742 13.0742 15.4755 13.0625 15.4775C13.0619 15.4776 13.0612 15.4778 13.0606 15.4779C13.0583 15.4782 13.0561 15.4786 13.0537 15.479C13.0484 15.4798 13.0429 15.4806 13.0371 15.4813ZM16.4555 0.569058C16.4544 0.569198 16.4533 0.569338 16.4522 0.569478L16.3896 0.0734047M16.4555 0.569058C16.817 0.523703 17.2947 0.5 17.7065 0.5C17.9125 0.5 18.0938 0.505949 18.2298 0.516774C18.2843 0.521114 18.327 0.52589 18.3585 0.530485M16.4555 0.569058C16.4566 0.568902 16.4577 0.568746 16.4588 0.56859L16.3896 0.0734047M16.3896 0.0734047L18.3585 0.530485M18.3585 0.530485C18.3751 0.551282 18.3986 0.59021 18.4225 0.661559C18.4678 0.796789 18.5 1.00808 18.5 1.31906C18.5 1.65803 18.4654 1.88639 18.4173 2.02952C18.383 2.13147 18.3519 2.16311 18.3435 2.16983L18.3322 2.17536L18.3201 2.18215C18.3224 2.18087 18.3215 2.18127 18.3166 2.18342C18.3062 2.188 18.2777 2.20052 18.2232 2.22186C18.1537 2.24906 18.0619 2.28295 17.9533 2.32142C17.7366 2.39821 17.4627 2.48982 17.1858 2.57732L17.1839 2.57794C16.2814 2.86721 15.5129 3.21079 14.912 3.59969C14.3168 3.98483 13.8502 4.43768 13.6075 4.96062C13.4129 5.37845 13.3816 5.71433 13.3816 6.46184V7.36939V7.86939H13.8816H16.0057C17.0464 7.86939 17.549 7.87212 17.831 7.89645C17.9662 7.90813 18.0161 7.92253 18.0352 7.92945C18.0486 7.93432 18.061 7.93941 18.1259 7.98455L18.1287 7.98645C18.2925 8.09873 18.3256 8.1284 18.3488 8.16097C18.3651 8.18392 18.4044 8.24979 18.4352 8.47657C18.5005 8.95716 18.4959 9.85402 18.483 11.7703L18.4827 11.8118C18.4699 13.6877 18.464 14.5445 18.3968 14.9914C18.3651 15.2019 18.3288 15.2441 18.3251 15.2489L18.3585 0.530485ZM0.646049 15.2172C0.630839 15.1941 0.585228 15.1081 0.552558 14.7838C0.490109 14.164 0.495741 12.9852 0.507506 10.5227C0.508109 10.3964 0.508729 10.2666 0.509357 10.1334L0.646049 15.2172ZM7.51663 1.84328C7.52276 1.84449 7.52141 1.8447 7.51449 1.84288C7.51525 1.84302 7.51597 1.84315 7.51663 1.84328ZM17.3686 1.08267C17.3686 1.08269 17.3677 1.08339 17.3655 1.08476C17.3675 1.08334 17.3685 1.08265 17.3686 1.08267ZM13.0344 15.2369C13.0348 15.2371 13.0352 15.2372 13.0354 15.2373L15.8327 15.3043L15.8327 15.3042L15.8327 15.3041C15.833 15.3036 15.8342 15.3012 15.8375 15.2971C15.8449 15.288 15.8656 15.2667 15.9128 15.2422L15.9128 15.2423L15.9222 15.2371C15.9214 15.2376 15.9217 15.2375 15.9231 15.2369C15.9321 15.2336 15.9891 15.2128 16.1364 15.1952C16.2949 15.1763 16.5179 15.1654 16.8247 15.1654H17.7204H18.2204V14.6654V8.71292V8.21921L17.7267 8.21296L15.6197 8.18626L15.6189 8.18625C15.022 8.17956 14.5779 8.17293 14.2379 8.15715C13.8931 8.14114 13.6859 8.11669 13.5516 8.08379C13.4312 8.05432 13.3983 8.02502 13.3817 8.00884C13.3488 7.97691 13.3097 7.92104 13.2225 7.75715L13.2212 7.75488C13.1367 7.59812 13.102 7.53024 13.102 6.5953C13.102 5.79515 13.176 5.27566 13.3433 4.86559C13.5061 4.46637 13.776 4.1258 14.2554 3.72076L14.2555 3.72078L14.2593 3.71748C14.5354 3.47945 15.0261 3.17134 15.5816 2.88437C16.1335 2.59924 16.7066 2.35699 17.1321 2.23597L17.1353 2.23505C17.3455 2.17374 17.5271 2.11083 17.6719 2.04783C17.7442 2.01638 17.8146 1.98178 17.878 1.94352C17.9351 1.90907 18.0159 1.85444 18.0839 1.77462C18.1452 1.7027 18.2809 1.50431 18.1977 1.2438C18.123 1.01022 17.9281 0.91914 17.8605 0.891582C17.7059 0.828633 17.5161 0.81906 17.3621 0.81906C17.0182 0.81906 16.4998 0.891369 16.0002 0.987025C15.4946 1.08385 14.9616 1.21366 14.5808 1.34443L14.579 1.34505C12.5979 2.03382 11.3055 3.36499 10.8777 5.22891L10.8773 5.23072C10.814 5.51149 10.782 5.9065 10.7629 6.63897C10.7435 7.38167 10.7371 8.50915 10.7371 10.2789V14.6654V15.1654H11.2371H12.1328C12.4396 15.1654 12.6626 15.1763 12.8211 15.1952C12.9684 15.2128 13.0254 15.2336 13.0344 15.2369ZM18.4021 0.538222C18.4045 0.538783 18.4056 0.539102 18.4055 0.53912C18.4055 0.539138 18.4043 0.538862 18.4021 0.538222ZM18.3412 2.17131C18.3412 2.17124 18.3419 2.17071 18.3434 2.16991C18.342 2.17098 18.3413 2.17138 18.3412 2.17131Z" stroke="url(#paint0_linear_139_28)"/>
<defs>
<linearGradient id="paint0_linear_139_28" x1="0" y1="8" x2="19" y2="8" gradientUnits="userSpaceOnUse">
<stop stop-color="#73E49A"/>
<stop offset="0.989583" stop-color="#1BA049"/>
</linearGradient>
</defs>
</svg>
