<svg width="20" height="20" viewBox="0 0 20 20" fill="none" xmlns="http://www.w3.org/2000/svg">
<path d="M7 1V3M13 1V3M7 17V19M13 17V19M3 7H1M3 13H1M19 7H17M19 13H17M5 17H15C16.1046 17 17 16.1046 17 15V5C17 3.89543 16.1046 3 15 3H5C3.89543 3 3 3.89543 3 5V15C3 16.1046 3.89543 17 5 17ZM7 7H13V13H7V7Z" stroke="url(#paint0_linear_125_2)" stroke-width="2" stroke-linecap="round" stroke-linejoin="round"/>
<defs>
<linearGradient id="paint0_linear_125_2" x1="1" y1="10" x2="19" y2="10" gradientUnits="userSpaceOnUse">
<stop stop-color="#73E49A"/>
<stop offset="0.989583" stop-color="#1BA049"/>
</linearGradient>
</defs>
</svg>
