<svg width="20" height="20" viewBox="0 0 20 20" fill="none" xmlns="http://www.w3.org/2000/svg">
<path d="M11.7818 9.52018L12.4181 8.74871L12.4181 8.7487L11.7818 9.52018ZM11.7818 10.4798L12.4181 11.2513L12.4181 11.2513L11.7818 10.4798ZM8.87273 12.879L9.50892 13.6505L9.50898 13.6505L8.87273 12.879ZM8.87273 7.12105L9.50898 6.34956L9.50894 6.34953L8.87273 7.12105ZM8.3246 2.31731L7.35282 2.08139L7.35281 2.08143L8.3246 2.31731ZM11.6754 2.31731L12.6472 2.08143L12.6472 2.08139L11.6754 2.31731ZM14.2478 3.38285L14.7681 4.23682L14.7681 4.23682L14.2478 3.38285ZM16.6172 5.75218L17.4711 6.27255L17.4712 6.27248L16.6172 5.75218ZM17.6827 8.3246L17.9186 7.35282L17.9186 7.35282L17.6827 8.3246ZM17.6827 11.6754L17.9186 12.6472L17.9186 12.6472L17.6827 11.6754ZM16.6172 14.2478L17.4712 13.7275L17.4711 13.7274L16.6172 14.2478ZM14.2478 16.6172L13.7274 17.4711L13.7275 17.4712L14.2478 16.6172ZM11.6754 17.6827L12.6472 17.9186L12.6472 17.9186L11.6754 17.6827ZM8.3246 17.6827L7.35282 17.9186L7.35282 17.9186L8.3246 17.6827ZM5.75219 16.6172L6.27249 17.4712L6.27256 17.4711L5.75219 16.6172ZM3.38285 14.2478L4.23682 14.7681L4.23682 14.7681L3.38285 14.2478ZM2.31731 11.6754L2.08139 12.6472L2.08143 12.6472L2.31731 11.6754ZM2.31731 8.3246L2.08143 7.35281L2.08139 7.35282L2.31731 8.3246ZM3.38285 5.75218L4.23682 5.23185L4.23681 5.23185L3.38285 5.75218ZM5.75219 3.38285L5.23186 4.23681L5.23186 4.23681L5.75219 3.38285ZM11.1456 10.2917C11.0327 10.1985 11 10.0803 11 10C11 9.91969 11.0327 9.80147 11.1456 9.70837L12.4181 11.2513C13.194 10.6114 13.194 9.38861 12.4181 8.74871L11.1456 10.2917ZM11.1456 9.70835L8.23649 12.1075L9.50898 13.6505L12.4181 11.2513L11.1456 9.70835ZM8.23655 12.1074C8.30201 12.0535 8.39713 12.01 8.50859 12.0015C8.6153 11.9934 8.71018 12.0191 8.78331 12.0593C8.93275 12.1415 9 12.285 9 12.3991H7C7 13.0075 7.3238 13.5392 7.81971 13.8119C8.32717 14.0909 8.99186 14.0769 9.50892 13.6505L8.23655 12.1074ZM9 12.3991V7.60087H7V12.3991H9ZM9 7.60087C9 7.71496 8.93277 7.85851 8.7833 7.9407C8.71017 7.9809 8.61528 8.00665 8.50856 7.99851C8.39709 7.99 8.30198 7.94654 8.23653 7.89256L9.50894 6.34953C8.9919 5.92317 8.32721 5.9091 7.81972 6.18812C7.32378 6.46079 7 6.99254 7 7.60087H9ZM8.23649 7.89253L11.1456 10.2917L12.4181 8.7487L9.50898 6.34956L8.23649 7.89253ZM9.29637 2.55322C9.47544 1.81559 10.5246 1.81559 10.7036 2.55322L12.6472 2.08139C11.9734 -0.693797 8.02655 -0.693797 7.35282 2.08139L9.29637 2.55322ZM10.7036 2.55318C11.1388 4.34598 13.1927 5.19671 14.7681 4.23682L13.7275 2.52888C13.3087 2.78404 12.7628 2.55787 12.6472 2.08143L10.7036 2.55318ZM14.7681 4.23682C15.4163 3.84185 16.1582 4.58364 15.7632 5.23187L17.4712 6.27248C18.957 3.83375 16.1663 1.04292 13.7275 2.52888L14.7681 4.23682ZM15.7633 5.2318C14.8032 6.80724 15.6541 8.86123 17.4468 9.29638L17.9186 7.35282C17.4421 7.23716 17.216 6.69126 17.4711 6.27255L15.7633 5.2318ZM17.4468 9.29637C18.1844 9.47544 18.1844 10.5246 17.4468 10.7036L17.9186 12.6472C20.6938 11.9734 20.6938 8.02655 17.9186 7.35282L17.4468 9.29637ZM17.4468 10.7036C15.6541 11.1388 14.8032 13.1927 15.7633 14.7682L17.4711 13.7274C17.216 13.3087 17.4421 12.7628 17.9186 12.6472L17.4468 10.7036ZM15.7632 14.7681C16.1582 15.4163 15.4163 16.1582 14.7681 15.7632L13.7275 17.4712C16.1663 18.957 18.957 16.1663 17.4712 13.7275L15.7632 14.7681ZM14.7682 15.7633C13.1927 14.8032 11.1388 15.6541 10.7036 17.4468L12.6472 17.9186C12.7628 17.4421 13.3087 17.216 13.7274 17.4711L14.7682 15.7633ZM10.7036 17.4468C10.5246 18.1844 9.47544 18.1844 9.29637 17.4468L7.35282 17.9186C8.02655 20.6938 11.9734 20.6938 12.6472 17.9186L10.7036 17.4468ZM9.29638 17.4468C8.86123 15.6541 6.80725 14.8032 5.23181 15.7633L6.27256 17.4711C6.69126 17.216 7.23716 17.4421 7.35282 17.9186L9.29638 17.4468ZM5.23188 15.7632C4.58363 16.1582 3.84186 15.4163 4.23682 14.7681L2.52888 13.7275C1.04292 16.1663 3.83376 18.957 6.27249 17.4712L5.23188 15.7632ZM4.23682 14.7681C5.19671 13.1927 4.34598 11.1388 2.55318 10.7036L2.08143 12.6472C2.55787 12.7628 2.78404 13.3087 2.52888 13.7275L4.23682 14.7681ZM2.55322 10.7036C1.81559 10.5246 1.81559 9.47544 2.55322 9.29637L2.08139 7.35282C-0.693797 8.02655 -0.693797 11.9734 2.08139 12.6472L2.55322 10.7036ZM2.55318 9.29638C4.346 8.86122 5.1967 6.80723 4.23682 5.23185L2.52888 6.2725C2.78404 6.69128 2.55786 7.23717 2.08143 7.35281L2.55318 9.29638ZM4.23681 5.23185C3.84186 4.58365 4.58363 3.84184 5.23186 4.23681L6.27252 2.52888C3.83377 1.04293 1.04292 3.83374 2.52888 6.27251L4.23681 5.23185ZM5.23186 4.23681C6.80724 5.1967 8.86122 4.34599 9.29638 2.55318L7.35281 2.08143C7.23717 2.55786 6.69128 2.78404 6.27251 2.52888L5.23186 4.23681Z" fill="url(#paint0_linear_133_67)"/>
<defs>
<linearGradient id="paint0_linear_133_67" x1="1" y1="10" x2="19" y2="10" gradientUnits="userSpaceOnUse">
<stop stop-color="#73E49A"/>
<stop offset="0.989583" stop-color="#1BA049"/>
</linearGradient>
</defs>
</svg>
