<svg width="20" height="17" viewBox="0 0 20 17" fill="none" xmlns="http://www.w3.org/2000/svg">
<path d="M5 15V16L5.01 16L5 15ZM4.12071 7.09695L4.33958 8.0727C4.87831 7.95186 5.21717 7.41728 5.09656 6.8785L4.12071 7.09695ZM13.9002 5.00098L12.9201 5.19972C13.0161 5.67313 13.4368 6.01024 13.9198 6.00079L13.9002 5.00098ZM15 14.9L15.01 15.9C15.0735 15.8993 15.1367 15.8926 15.1989 15.88L15 14.9ZM2.29289 15.2929C1.90237 15.6834 1.90237 16.3166 2.29289 16.7071C2.68342 17.0976 3.31658 17.0976 3.70711 16.7071L2.29289 15.2929ZM5 14C3.34315 14 2 12.6568 2 11H0C0 13.7614 2.23857 16 5 16V14ZM2 11C2 9.57092 3.00015 8.37315 4.33958 8.0727L3.90184 6.1212C1.66899 6.62205 0 8.61488 0 11H2ZM5.09656 6.8785C5.03348 6.59674 5 6.30287 5 6H3C3 6.45081 3.0499 6.89116 3.14486 7.3154L5.09656 6.8785ZM5 6C5 3.79086 6.79086 2 9 2V0C5.6863 0 3 2.6863 3 6H5ZM9 2C10.9343 2 12.5499 3.37396 12.9201 5.19972L14.8803 4.80224C14.3247 2.06254 11.9043 0 9 0V2ZM13.9198 6.00079C13.9465 6.00026 13.9732 6 14 6V4C13.96 4 13.9203 4.0004 13.8806 4.00117L13.9198 6.00079ZM14 6C16.2091 6 18 7.79087 18 10H20C20 6.68629 17.3137 4 14 4V6ZM18 10C18 11.934 16.6264 13.5494 14.8011 13.92L15.1989 15.88C17.938 15.324 20 12.904 20 10H18ZM14.99 13.9L4.99 14L5.01 16L15.01 15.9L14.99 13.9ZM3.70711 16.7071L8.58579 11.8284L7.17157 10.4142L2.29289 15.2929L3.70711 16.7071ZM7.17159 11.8284C7.89435 12.5512 8.89571 13 10 13V11C9.44749 11 8.94885 10.7772 8.58577 10.4142L7.17159 11.8284ZM10 13C12.2092 13 14 11.2092 14 9H12C12 10.1046 11.1046 11 10 11V13ZM14 9C14 6.79082 12.2092 5 10 5V7C11.1046 7 12 7.89538 12 9H14ZM10 5C7.79082 5 6 6.79082 6 9H8C8 7.89538 8.89538 7 10 7V5ZM6 9C6 10.1043 6.44882 11.1056 7.17157 11.8284L8.58579 10.4142C8.22276 10.0512 8 9.55253 8 9H6Z" fill="url(#paint0_linear_121_190)"/>
<defs>
<linearGradient id="paint0_linear_121_190" x1="1" y1="8.5" x2="19" y2="8.5" gradientUnits="userSpaceOnUse">
<stop stop-color="#73E49A"/>
<stop offset="0.989583" stop-color="#1BA049"/>
</linearGradient>
</defs>
</svg>
