<svg width="60" height="60" viewBox="0 0 60 60" fill="none" xmlns="http://www.w3.org/2000/svg">
<path d="M30 60C43.1458 60 50.4538 60 55.2269 55.2269C60 50.4538 60 43.1458 60 30C60 16.8542 60 9.54622 55.2269 4.7731C50.4538 -7.15256e-07 43.1458 0 30 0C16.8542 0 9.54622 -7.15256e-07 4.7731 4.7731C-7.15256e-07 9.54622 0 16.8542 0 30C0 43.1458 -7.15256e-07 50.4538 4.7731 55.2269C9.54622 60 16.8542 60 30 60Z" fill="#FCFDFC"/>
<path d="M30 60C43.1458 60 50.4538 60 55.2269 55.2269C60 50.4538 60 43.1458 60 30C60 16.8542 60 9.54622 55.2269 4.7731C50.4538 -7.15256e-07 43.1458 0 30 0C16.8542 0 9.54622 -7.15256e-07 4.7731 4.7731C-7.15256e-07 9.54622 0 16.8542 0 30C0 43.1458 -7.15256e-07 50.4538 4.7731 55.2269C9.54622 60 16.8542 60 30 60Z" fill="#FCFDFC"/>
<path d="M30 60C43.1458 60 50.4538 60 55.2269 55.2269C60 50.4538 60 43.1458 60 30C60 16.8542 60 9.54622 55.2269 4.7731C50.4538 -7.15256e-07 43.1458 0 30 0C16.8542 0 9.54622 -7.15256e-07 4.7731 4.7731C-7.15256e-07 9.54622 0 16.8542 0 30C0 43.1458 -7.15256e-07 50.4538 4.7731 55.2269C9.54622 60 16.8542 60 30 60Z" fill="#FCFDFC"/>
<path d="M30 60C43.1458 60 50.4538 60 55.2269 55.2269C60 50.4538 60 43.1458 60 30C60 16.8542 60 9.54622 55.2269 4.7731C50.4538 -7.15256e-07 43.1458 0 30 0C16.8542 0 9.54622 -7.15256e-07 4.7731 4.7731C-7.15256e-07 9.54622 0 16.8542 0 30C0 43.1458 -7.15256e-07 50.4538 4.7731 55.2269C9.54622 60 16.8542 60 30 60Z" fill="#FCFDFC"/>
<path d="M30 60C43.1458 60 50.4538 60 55.2269 55.2269C60 50.4538 60 43.1458 60 30C60 16.8542 60 9.54622 55.2269 4.7731C50.4538 -7.15256e-07 43.1458 0 30 0C16.8542 0 9.54622 -7.15256e-07 4.7731 4.7731C-7.15256e-07 9.54622 0 16.8542 0 30C0 43.1458 -7.15256e-07 50.4538 4.7731 55.2269C9.54622 60 16.8542 60 30 60Z" fill="#FCFDFC"/>
<path d="M30 60C43.1458 60 50.4538 60 55.2269 55.2269C60 50.4538 60 43.1458 60 30C60 16.8542 60 9.54622 55.2269 4.7731C50.4538 -7.15256e-07 43.1458 0 30 0C16.8542 0 9.54622 -7.15256e-07 4.7731 4.7731C-7.15256e-07 9.54622 0 16.8542 0 30C0 43.1458 -7.15256e-07 50.4538 4.7731 55.2269C9.54622 60 16.8542 60 30 60Z" stroke="url(#paint0_linear_169_20)" stroke-width="2"/>
<path d="M12.62 29.5C12.62 25.372 13.412 22.12 14.996 19.744C16.604 17.368 19.184 16.18 22.736 16.18C26.288 16.18 28.856 17.368 30.44 19.744C32.048 22.12 32.852 25.372 32.852 29.5C32.852 33.676 32.048 36.952 30.44 39.328C28.856 41.704 26.288 42.892 22.736 42.892C19.184 42.892 16.604 41.704 14.996 39.328C13.412 36.952 12.62 33.676 12.62 29.5ZM26.804 29.5C26.804 27.076 26.54 25.216 26.012 23.92C25.484 22.6 24.392 21.94 22.736 21.94C21.08 21.94 19.988 22.6 19.46 23.92C18.932 25.216 18.668 27.076 18.668 29.5C18.668 31.132 18.764 32.488 18.956 33.568C19.148 34.624 19.532 35.488 20.108 36.16C20.708 36.808 21.584 37.132 22.736 37.132C23.888 37.132 24.752 36.808 25.328 36.16C25.928 35.488 26.324 34.624 26.516 33.568C26.708 32.488 26.804 31.132 26.804 29.5ZM35.4564 22.444V16.72H45.4284V43H39.0204V22.444H35.4564Z" fill="url(#paint1_linear_169_20)"/>
<defs>
<linearGradient id="paint0_linear_169_20" x1="-40.5" y1="107.625" x2="37.125" y2="23.625" gradientUnits="userSpaceOnUse">
<stop/>
<stop offset="1" stop-opacity="0"/>
</linearGradient>
<linearGradient id="paint1_linear_169_20" x1="11" y1="30" x2="49" y2="30" gradientUnits="userSpaceOnUse">
<stop stop-color="#22D3EE"/>
<stop offset="0.989583" stop-color="#2563EB"/>
</linearGradient>
</defs>
</svg>
