<svg width="60" height="60" viewBox="0 0 60 60" fill="none" xmlns="http://www.w3.org/2000/svg">
<path d="M30 60C43.1458 60 50.4538 60 55.2269 55.2269C60 50.4538 60 43.1458 60 30C60 16.8542 60 9.54622 55.2269 4.7731C50.4538 -7.15256e-07 43.1458 0 30 0C16.8542 0 9.54622 -7.15256e-07 4.7731 4.7731C-7.15256e-07 9.54622 0 16.8542 0 30C0 43.1458 -7.15256e-07 50.4538 4.7731 55.2269C9.54622 60 16.8542 60 30 60Z" fill="#FCFDFC"/>
<path d="M30 60C43.1458 60 50.4538 60 55.2269 55.2269C60 50.4538 60 43.1458 60 30C60 16.8542 60 9.54622 55.2269 4.7731C50.4538 -7.15256e-07 43.1458 0 30 0C16.8542 0 9.54622 -7.15256e-07 4.7731 4.7731C-7.15256e-07 9.54622 0 16.8542 0 30C0 43.1458 -7.15256e-07 50.4538 4.7731 55.2269C9.54622 60 16.8542 60 30 60Z" fill="#FCFDFC"/>
<path d="M30 60C43.1458 60 50.4538 60 55.2269 55.2269C60 50.4538 60 43.1458 60 30C60 16.8542 60 9.54622 55.2269 4.7731C50.4538 -7.15256e-07 43.1458 0 30 0C16.8542 0 9.54622 -7.15256e-07 4.7731 4.7731C-7.15256e-07 9.54622 0 16.8542 0 30C0 43.1458 -7.15256e-07 50.4538 4.7731 55.2269C9.54622 60 16.8542 60 30 60Z" fill="#FCFDFC"/>
<path d="M30 60C43.1458 60 50.4538 60 55.2269 55.2269C60 50.4538 60 43.1458 60 30C60 16.8542 60 9.54622 55.2269 4.7731C50.4538 -7.15256e-07 43.1458 0 30 0C16.8542 0 9.54622 -7.15256e-07 4.7731 4.7731C-7.15256e-07 9.54622 0 16.8542 0 30C0 43.1458 -7.15256e-07 50.4538 4.7731 55.2269C9.54622 60 16.8542 60 30 60Z" fill="#FCFDFC"/>
<path d="M30 60C43.1458 60 50.4538 60 55.2269 55.2269C60 50.4538 60 43.1458 60 30C60 16.8542 60 9.54622 55.2269 4.7731C50.4538 -7.15256e-07 43.1458 0 30 0C16.8542 0 9.54622 -7.15256e-07 4.7731 4.7731C-7.15256e-07 9.54622 0 16.8542 0 30C0 43.1458 -7.15256e-07 50.4538 4.7731 55.2269C9.54622 60 16.8542 60 30 60Z" fill="#FCFDFC"/>
<path d="M30 60C43.1458 60 50.4538 60 55.2269 55.2269C60 50.4538 60 43.1458 60 30C60 16.8542 60 9.54622 55.2269 4.7731C50.4538 -7.15256e-07 43.1458 0 30 0C16.8542 0 9.54622 -7.15256e-07 4.7731 4.7731C-7.15256e-07 9.54622 0 16.8542 0 30C0 43.1458 -7.15256e-07 50.4538 4.7731 55.2269C9.54622 60 16.8542 60 30 60Z" stroke="url(#paint0_linear_169_26)" stroke-width="2"/>
<path d="M8.62 29.5C8.62 25.372 9.412 22.12 10.996 19.744C12.604 17.368 15.184 16.18 18.736 16.18C22.288 16.18 24.856 17.368 26.44 19.744C28.048 22.12 28.852 25.372 28.852 29.5C28.852 33.676 28.048 36.952 26.44 39.328C24.856 41.704 22.288 42.892 18.736 42.892C15.184 42.892 12.604 41.704 10.996 39.328C9.412 36.952 8.62 33.676 8.62 29.5ZM22.804 29.5C22.804 27.076 22.54 25.216 22.012 23.92C21.484 22.6 20.392 21.94 18.736 21.94C17.08 21.94 15.988 22.6 15.46 23.92C14.932 25.216 14.668 27.076 14.668 29.5C14.668 31.132 14.764 32.488 14.956 33.568C15.148 34.624 15.532 35.488 16.108 36.16C16.708 36.808 17.584 37.132 18.736 37.132C19.888 37.132 20.752 36.808 21.328 36.16C21.928 35.488 22.324 34.624 22.516 33.568C22.708 32.488 22.804 31.132 22.804 29.5ZM32.3204 24.136C32.4164 21.568 33.2564 19.588 34.8404 18.196C36.4244 16.804 38.5724 16.108 41.2844 16.108C43.0844 16.108 44.6204 16.42 45.8924 17.044C47.1884 17.668 48.1604 18.52 48.8084 19.6C49.4804 20.68 49.8164 21.892 49.8164 23.236C49.8164 24.82 49.4204 26.116 48.6284 27.124C47.8364 28.108 46.9124 28.78 45.8564 29.14V29.284C47.2244 29.74 48.3044 30.496 49.0964 31.552C49.8884 32.608 50.2844 33.964 50.2844 35.62C50.2844 37.108 49.9364 38.428 49.2404 39.58C48.5684 40.708 47.5724 41.596 46.2524 42.244C44.9564 42.892 43.4084 43.216 41.6084 43.216C38.7284 43.216 36.4244 42.508 34.6964 41.092C32.9924 39.676 32.0924 37.54 31.9964 34.684H37.9724C37.9964 35.74 38.2964 36.58 38.8724 37.204C39.4484 37.804 40.2884 38.104 41.3924 38.104C42.3284 38.104 43.0484 37.84 43.5524 37.312C44.0804 36.76 44.3444 36.04 44.3444 35.152C44.3444 34 43.9724 33.172 43.2284 32.668C42.5084 32.14 41.3444 31.876 39.7364 31.876H38.5844V26.872H39.7364C40.9604 26.872 41.9444 26.668 42.6884 26.26C43.4564 25.828 43.8404 25.072 43.8404 23.992C43.8404 23.128 43.6004 22.456 43.1204 21.976C42.6404 21.496 41.9804 21.256 41.1404 21.256C40.2284 21.256 39.5444 21.532 39.0884 22.084C38.6564 22.636 38.4044 23.32 38.3324 24.136H32.3204Z" fill="url(#paint1_linear_169_26)"/>
<defs>
<linearGradient id="paint0_linear_169_26" x1="-40.5" y1="107.625" x2="37.125" y2="23.625" gradientUnits="userSpaceOnUse">
<stop/>
<stop offset="1" stop-opacity="0"/>
</linearGradient>
<linearGradient id="paint1_linear_169_26" x1="7" y1="30" x2="53" y2="30" gradientUnits="userSpaceOnUse">
<stop stop-color="#22D3EE"/>
<stop offset="0.989583" stop-color="#2563EB"/>
</linearGradient>
</defs>
</svg>
