<svg width="19" height="16" viewBox="0 0 19 16" fill="none" xmlns="http://www.w3.org/2000/svg">
<path d="M18.2846 4.8135L18.2846 4.8135C18.3329 4.96496 18.3607 5.0555 18.383 5.18568C18.4064 5.32174 18.4255 5.51228 18.4401 5.85033C18.4693 6.52969 18.4779 7.73086 18.4906 10.1331L18.2846 4.8135ZM18.2846 4.8135L18.2839 4.81123M18.2846 4.8135L18.2839 4.81123M18.2839 4.81123C17.8129 3.30908 16.8974 2.21621 15.5393 1.51387C14.6637 1.06896 13.5646 0.722256 12.6102 0.586996C12.2894 0.552957 11.6912 0.510313 11.2772 0.501726C11.0975 0.499524 10.9669 0.499153 10.8667 0.502246C10.7643 0.505407 10.7135 0.5118 10.6878 0.517089C10.6873 0.517186 10.6869 0.517279 10.6864 0.51737C10.68 0.523274 10.669 0.533889 10.6517 0.551903C10.5679 0.639538 10.458 0.870743 10.5167 1.6166L10.5167 1.6166L10.5171 1.62178C10.5415 1.97958 10.5933 2.06887 10.6292 2.11013C10.6778 2.16593 10.7936 2.24459 11.1933 2.36928C12.2591 2.68787 13.1647 3.06217 13.8673 3.48061C14.5597 3.893 15.1047 4.37776 15.3751 4.94111C15.5671 5.33147 15.5955 5.68904 15.5955 6.4402V7.37395V7.87395H15.0955H12.9864C12.0129 7.87395 11.504 7.87874 11.2065 7.90141C11.0604 7.91253 10.9916 7.92638 10.9564 7.93662C10.9326 7.94353 10.9189 7.94969 10.8858 7.97122L10.8858 7.97125L10.8802 7.97476C10.7202 8.07568 10.698 8.09727 10.6824 8.11847C10.6725 8.13204 10.6342 8.18932 10.6027 8.4146C10.5367 8.88812 10.5352 9.78098 10.5352 11.687C10.5352 13.593 10.5367 14.4858 10.6027 14.9594C10.6342 15.1846 10.6725 15.2419 10.6824 15.2555C10.698 15.2767 10.7202 15.2983 10.8802 15.3992L10.8803 15.3991L10.8896 15.4053L10.892 15.4069C10.9143 15.4216 10.92 15.4254 10.9564 15.4337C11.0187 15.4479 11.1374 15.4635 11.388 15.475C11.8848 15.4976 12.7797 15.5 14.5087 15.5H17.9727L18.1321 15.3873L18.1321 15.3873M18.2839 4.81123L18.1321 15.3873M18.1321 15.3873L18.1349 15.3853M18.1321 15.3873L18.1349 15.3853M18.1349 15.3853C18.3262 15.2519 18.3359 15.2446 18.354 15.2172M18.1349 15.3853L18.354 15.2172M15.7674 8.48555L15.5057 8.05948C15.6191 7.98983 15.6755 7.94172 15.7101 7.9014C15.7397 7.86679 15.7682 7.82053 15.7932 7.73184C15.8532 7.51906 15.8717 7.15687 15.8543 6.40733L15.8543 6.4066C15.8371 5.61637 15.7969 5.22726 15.689 4.93238C15.5875 4.65494 15.4112 4.42128 14.991 3.98635L14.9893 3.98454C14.4023 3.3707 13.3282 2.74634 12.0242 2.29761L12.0242 2.29763L12.0197 2.29604C11.7735 2.2087 11.5403 2.11745 11.3621 2.03881C11.2744 2.00014 11.1908 1.96044 11.123 1.92264C11.0904 1.90448 11.0491 1.87992 11.0093 1.8501C10.9897 1.83537 10.9602 1.81172 10.9298 1.77953C10.9063 1.75468 10.8438 1.68551 10.8091 1.5765C10.7728 1.4629 10.7719 1.32836 10.8289 1.19929C10.881 1.08153 10.963 1.00964 11.0198 0.970342C11.124 0.898376 11.2349 0.872987 11.2905 0.862051C11.4201 0.836593 11.5766 0.832286 11.7268 0.835856C12.0398 0.843295 12.4572 0.889316 12.8953 0.96793C14.2909 1.21358 15.4457 1.67681 16.3284 2.3825C17.2178 3.09362 17.805 4.03077 18.0895 5.17208L18.0896 5.17207L18.0907 5.17676C18.1554 5.44743 18.1872 5.81865 18.2063 6.54152C18.2256 7.27507 18.2319 8.41103 18.2319 10.2374V14.6661V15.1661H17.7319H11.2684H10.7684V14.6661V8.71677V8.22308L11.2621 8.21681L13.3622 8.19014C13.3623 8.19014 13.3625 8.19013 13.3626 8.19013C13.3627 8.19013 13.3627 8.19013 13.3627 8.19013C14.3356 8.17668 14.8477 8.16555 15.1508 8.13966C15.4121 8.11733 15.4578 8.08908 15.5004 8.06274C15.5029 8.06121 15.5054 8.05968 15.5079 8.05816L15.7674 8.48555ZM15.7674 8.48555C15.5037 8.64563 15.2996 8.66341 13.3691 8.69009L15.3506 3.63896C16.2011 4.51935 16.3202 4.8306 16.3542 6.39574C16.3882 7.86306 16.3032 8.15652 15.7674 8.48555ZM3.38667 8.68622L1.2796 8.71292V14.1654V14.6654H1.7796H2.17532C2.80659 14.6654 3.15634 14.7099 3.31843 14.7988C3.71084 15.0035 3.77908 15.3861 3.48904 15.7687C3.31843 16 3.3099 16 2.10707 16C1.0578 16 0.861597 15.9733 0.622738 15.822L0.588829 15.8006C0.480408 15.732 0.393484 15.6771 0.32361 15.6054C0.0411053 15.316 0.0372944 14.7545 0.0180759 11.9231V11.9231L0.0170612 11.7737C-0.00853157 7.99222 -0.00853157 7.98332 0.588615 7.57403C0.870127 7.37828 0.938372 7.36939 2.99426 7.36939H4.61839H5.11839V6.86939V6.46184C5.11839 5.72334 5.08427 5.48311 4.93925 5.17169C4.5639 4.36202 3.41226 3.61463 1.66348 3.05408C1.10046 2.87613 0.545963 2.68038 0.435064 2.6181C0.145021 2.47574 0 2.04866 0 1.31906L3.38667 8.68622ZM3.38667 8.68622C5.76672 8.65953 5.87762 8.63284 6.21885 7.99221L3.38667 8.68622ZM0.641518 0.530485C0.673029 0.52589 0.715738 0.521114 0.770248 0.516774C0.906237 0.505949 1.08746 0.5 1.29346 0.5C1.70527 0.5 2.18299 0.523703 2.5445 0.569058C3.32967 0.679233 4.40967 0.978503 5.05761 1.25355C6.84555 2.02972 7.96249 3.34697 8.39383 5.17109L8.39479 5.17513L8.39481 5.17513C8.42607 5.30259 8.45697 5.62346 8.47545 6.44308C8.49343 7.24075 8.49984 8.46321 8.49984 10.3501C8.49984 10.5525 8.49988 10.7467 8.49991 10.9331C8.50027 13.2324 8.50045 14.3284 8.43974 14.8982C8.42401 15.0459 8.40593 15.1379 8.38911 15.1961C8.38104 15.224 8.37415 15.241 8.36969 15.2506C8.36809 15.254 8.36678 15.2565 8.36581 15.2583C8.36544 15.2589 8.36511 15.2595 8.36484 15.26L8.36322 15.2625C8.36204 15.2641 8.36115 15.2654 8.36016 15.2666C8.35255 15.276 8.33982 15.2811 8.15273 15.3993L8.15226 15.3996C8.14924 15.4015 8.1463 15.4034 8.14338 15.4053C8.0582 15.46 7.99595 15.5 6.93542 15.5C6.34326 15.5 6.09167 15.4983 5.96285 15.4813C5.96066 15.4784 5.95833 15.4752 5.95586 15.4719L5.95194 15.4666L5.95191 15.4666C5.90878 15.4097 5.88921 15.3662 5.88092 15.3389C5.87685 15.3256 5.87557 15.3164 5.87519 15.3112C5.87499 15.3086 5.87502 15.3067 5.87507 15.3057L5.87515 15.3043C5.87524 15.3041 5.87636 15.3016 5.88003 15.2971C5.8874 15.288 5.90814 15.2667 5.95527 15.2422L5.96463 15.2373C5.96485 15.2372 5.96516 15.2371 5.96558 15.2369C5.97464 15.2336 6.03158 15.2128 6.17886 15.1952C6.33737 15.1763 6.56043 15.1654 6.86718 15.1654H7.7629H8.2629V14.6654V10.2789C8.2629 8.50915 8.25653 7.38167 8.23714 6.63897C8.21801 5.9065 8.18602 5.51149 8.12268 5.23072L8.12227 5.22891C7.69452 3.36499 6.4021 2.03382 4.42099 1.34505L4.4192 1.34443C4.03841 1.21366 3.50544 1.08385 2.99979 0.987025C2.50023 0.891369 1.98184 0.81906 1.63789 0.81906C1.48389 0.81906 1.29409 0.828633 1.13952 0.891582C1.07186 0.91914 0.87698 1.01022 0.80233 1.2438C0.719072 1.50431 0.854822 1.7027 0.916111 1.77462C0.98414 1.85444 1.06488 1.90907 1.12196 1.94352C1.18536 1.98178 1.2558 2.01638 1.32808 2.04783C1.47293 2.11083 1.65449 2.17374 1.86474 2.23505L1.8679 2.23597C2.29339 2.35699 2.8665 2.59924 3.41843 2.88437C3.97391 3.17134 4.46464 3.47945 4.74071 3.71748L4.74454 3.72078L4.74455 3.72076C5.22403 4.1258 5.49389 4.46637 5.65671 4.86559C5.82395 5.27566 5.89799 5.79515 5.89799 6.5953C5.89799 7.53024 5.86331 7.59812 5.77877 7.75488L5.77754 7.75715C5.69026 7.92104 5.65115 7.97691 5.61835 8.00884C5.60172 8.02502 5.56875 8.05432 5.44839 8.08379C5.31406 8.11669 5.10692 8.14114 4.76212 8.15715C4.42207 8.17293 3.97796 8.17956 3.38106 8.18625L3.38034 8.18626L1.27326 8.21296L0.779598 8.21921V8.71292V14.6654V15.1654H1.2796H2.17532C2.48207 15.1654 2.70513 15.1763 2.86364 15.1952C3.01092 15.2128 3.06786 15.2336 3.07692 15.2369C3.07833 15.2375 3.07858 15.2376 3.07782 15.2371L3.08717 15.2423L3.08722 15.2422C3.13436 15.2667 3.15509 15.288 3.16247 15.2971C3.16578 15.3012 3.16701 15.3036 3.16729 15.3041L3.16734 15.3042L3.16735 15.3043L0.641518 0.530485ZM0.641518 0.530485C0.62488 0.551282 0.601437 0.59021 0.577532 0.661559C0.532221 0.796789 0.5 1.00808 0.5 1.31906C0.5 1.65803 0.53462 1.88639 0.582718 2.02952C0.616983 2.13148 0.648129 2.16312 0.656544 2.16983L0.667816 2.17536L0.679878 2.18214C0.677635 2.18087 0.678541 2.18127 0.683428 2.18342C0.693834 2.188 0.722288 2.20051 0.776834 2.22186C0.846334 2.24906 0.938122 2.28295 1.04671 2.32142C1.26343 2.39821 1.53731 2.48982 1.81417 2.57732L1.8161 2.57794C2.71855 2.86721 3.48706 3.21079 4.08804 3.59969C4.68321 3.98483 5.14983 4.43768 5.39251 4.96062C5.58709 5.37845 5.61839 5.71433 5.61839 6.46184V7.36939V7.86939H5.11839H2.99426C1.9536 7.86939 1.45097 7.87212 1.16905 7.89645C1.03376 7.90813 0.983871 7.92253 0.964798 7.92945C0.951405 7.93432 0.938963 7.93941 0.874067 7.98455L0.871292 7.98645C0.707483 8.09873 0.674377 8.1284 0.651209 8.16097C0.634878 8.18392 0.595562 8.24979 0.564762 8.47657C0.499495 8.95716 0.50408 9.85402 0.51705 11.7703L0.517332 11.8118C0.530115 13.6877 0.535954 14.5445 0.603199 14.9914C0.634346 15.1983 0.669931 15.2427 0.674688 15.2486L0.674906 15.2489C0.692583 15.2711 0.714048 15.2878 0.890728 15.3999L0.641518 0.530485ZM2.14316 1.27459C1.9575 1.2204 1.81965 1.17114 1.72696 1.13082C1.68035 1.11055 1.65242 1.09566 1.63864 1.08734C1.63838 1.08719 1.63813 1.08703 1.63789 1.08688C1.63653 1.08606 1.6354 1.08535 1.63448 1.08476C1.63542 1.08545 1.63656 1.08632 1.63789 1.08736C1.64585 1.09362 1.66041 1.10626 1.67721 1.12598C1.69419 1.1459 1.74879 1.21663 1.76953 1.32264C1.87282 1.3278 1.99085 1.33841 2.11892 1.35352M2.14316 1.27459C2.14367 1.27474 2.14417 1.27488 2.14467 1.27503L2.12169 1.35385C2.12077 1.35374 2.11984 1.35363 2.11892 1.35352M2.14316 1.27459C2.14261 1.27443 2.14206 1.27428 2.14151 1.27412L2.11892 1.35352M2.14316 1.27459C2.28364 1.3146 2.4335 1.3642 2.58907 1.42132C3.1725 1.51854 3.83139 1.67122 4.2568 1.81732C6.09942 2.45795 7.25106 3.66801 7.63494 5.34075C7.73731 5.79452 7.7629 6.73766 7.7629 10.2789V14.1654V14.6654H7.2629H6.86718C6.23591 14.6654 5.88615 14.7099 5.72407 14.7988C5.33166 15.0035 5.26342 15.3861 5.55346 15.7687C5.72407 16 5.7326 16 6.93542 16C7.9847 16 8.1809 15.9733 8.41976 15.822C8.4469 15.8049 8.47277 15.7891 8.49743 15.774C8.57748 15.725 8.64479 15.6838 8.7014 15.631C9.00081 15.3522 9.00069 14.7518 8.99993 10.9753L8.99984 10.3501C8.99984 6.57751 8.97425 5.43862 8.88041 5.05603L2.11892 1.35352M18.354 15.2172C18.3692 15.1941 18.4148 15.1081 18.4474 14.7838C18.5099 14.164 18.5043 12.9852 18.4925 10.5227C18.4919 10.3964 18.4913 10.2666 18.4906 10.1334L18.354 15.2172ZM11.4834 1.84328C11.4772 1.84449 11.4786 1.8447 11.4855 1.84288C11.4847 1.84302 11.484 1.84315 11.4834 1.84328ZM0.658768 2.17131C0.658787 2.17124 0.65811 2.17071 0.656649 2.16991C0.65801 2.17099 0.658747 2.17139 0.658768 2.17131ZM0.597893 0.538222C0.595509 0.538782 0.594418 0.539101 0.594465 0.53912C0.594513 0.539138 0.595707 0.538862 0.597893 0.538222ZM2.00471 1.75504C2.14586 1.79519 2.29937 1.84662 2.46051 1.9069C2.28517 1.87841 2.12223 1.85609 1.98023 1.84108C1.98003 1.84106 1.97983 1.84104 1.97963 1.84102C1.84415 1.82671 1.72775 1.81906 1.63789 1.81906C1.5748 1.81906 1.53189 1.8218 1.50551 1.8249C1.49234 1.82644 1.48653 1.82771 1.48653 1.82773C1.48654 1.82776 1.49805 1.82532 1.51671 1.81772L1.51724 1.8175C1.52594 1.81399 1.58058 1.79187 1.63789 1.73727C1.66012 1.71608 1.68276 1.69 1.70328 1.65822C1.79093 1.68961 1.89157 1.72205 2.00471 1.75504Z" stroke="url(#paint0_linear_139_42)"/>
<defs>
<linearGradient id="paint0_linear_139_42" x1="19" y1="8" x2="0" y2="8" gradientUnits="userSpaceOnUse">
<stop stop-color="#73E49A"/>
<stop offset="0.989583" stop-color="#1BA049"/>
</linearGradient>
</defs>
</svg>
