<svg width="60" height="60" viewBox="0 0 60 60" fill="none" xmlns="http://www.w3.org/2000/svg">
<path d="M30 60C43.1458 60 50.4538 60 55.2269 55.2269C60 50.4538 60 43.1458 60 30C60 16.8542 60 9.54622 55.2269 4.7731C50.4538 -7.15256e-07 43.1458 0 30 0C16.8542 0 9.54622 -7.15256e-07 4.7731 4.7731C-7.15256e-07 9.54622 0 16.8542 0 30C0 43.1458 -7.15256e-07 50.4538 4.7731 55.2269C9.54622 60 16.8542 60 30 60Z" fill="#FCFDFC"/>
<path d="M30 60C43.1458 60 50.4538 60 55.2269 55.2269C60 50.4538 60 43.1458 60 30C60 16.8542 60 9.54622 55.2269 4.7731C50.4538 -7.15256e-07 43.1458 0 30 0C16.8542 0 9.54622 -7.15256e-07 4.7731 4.7731C-7.15256e-07 9.54622 0 16.8542 0 30C0 43.1458 -7.15256e-07 50.4538 4.7731 55.2269C9.54622 60 16.8542 60 30 60Z" fill="#FCFDFC"/>
<path d="M30 60C43.1458 60 50.4538 60 55.2269 55.2269C60 50.4538 60 43.1458 60 30C60 16.8542 60 9.54622 55.2269 4.7731C50.4538 -7.15256e-07 43.1458 0 30 0C16.8542 0 9.54622 -7.15256e-07 4.7731 4.7731C-7.15256e-07 9.54622 0 16.8542 0 30C0 43.1458 -7.15256e-07 50.4538 4.7731 55.2269C9.54622 60 16.8542 60 30 60Z" fill="#FCFDFC"/>
<path d="M30 60C43.1458 60 50.4538 60 55.2269 55.2269C60 50.4538 60 43.1458 60 30C60 16.8542 60 9.54622 55.2269 4.7731C50.4538 -7.15256e-07 43.1458 0 30 0C16.8542 0 9.54622 -7.15256e-07 4.7731 4.7731C-7.15256e-07 9.54622 0 16.8542 0 30C0 43.1458 -7.15256e-07 50.4538 4.7731 55.2269C9.54622 60 16.8542 60 30 60Z" fill="#FCFDFC"/>
<path d="M30 60C43.1458 60 50.4538 60 55.2269 55.2269C60 50.4538 60 43.1458 60 30C60 16.8542 60 9.54622 55.2269 4.7731C50.4538 -7.15256e-07 43.1458 0 30 0C16.8542 0 9.54622 -7.15256e-07 4.7731 4.7731C-7.15256e-07 9.54622 0 16.8542 0 30C0 43.1458 -7.15256e-07 50.4538 4.7731 55.2269C9.54622 60 16.8542 60 30 60Z" fill="#FCFDFC"/>
<path d="M30 60C43.1458 60 50.4538 60 55.2269 55.2269C60 50.4538 60 43.1458 60 30C60 16.8542 60 9.54622 55.2269 4.7731C50.4538 -7.15256e-07 43.1458 0 30 0C16.8542 0 9.54622 -7.15256e-07 4.7731 4.7731C-7.15256e-07 9.54622 0 16.8542 0 30C0 43.1458 -7.15256e-07 50.4538 4.7731 55.2269C9.54622 60 16.8542 60 30 60Z" stroke="url(#paint0_linear_169_23)" stroke-width="2"/>
<path d="M9.62 29.5C9.62 25.372 10.412 22.12 11.996 19.744C13.604 17.368 16.184 16.18 19.736 16.18C23.288 16.18 25.856 17.368 27.44 19.744C29.048 22.12 29.852 25.372 29.852 29.5C29.852 33.676 29.048 36.952 27.44 39.328C25.856 41.704 23.288 42.892 19.736 42.892C16.184 42.892 13.604 41.704 11.996 39.328C10.412 36.952 9.62 33.676 9.62 29.5ZM23.804 29.5C23.804 27.076 23.54 25.216 23.012 23.92C22.484 22.6 21.392 21.94 19.736 21.94C18.08 21.94 16.988 22.6 16.46 23.92C15.932 25.216 15.668 27.076 15.668 29.5C15.668 31.132 15.764 32.488 15.956 33.568C16.148 34.624 16.532 35.488 17.108 36.16C17.708 36.808 18.584 37.132 19.736 37.132C20.888 37.132 21.752 36.808 22.328 36.16C22.928 35.488 23.324 34.624 23.516 33.568C23.708 32.488 23.804 31.132 23.804 29.5ZM32.8884 38.068C33.7044 37.42 34.0764 37.12 34.0044 37.168C36.3564 35.224 38.2044 33.628 39.5484 32.38C40.9164 31.132 42.0684 29.824 43.0044 28.456C43.9404 27.088 44.4084 25.756 44.4084 24.46C44.4084 23.476 44.1804 22.708 43.7244 22.156C43.2684 21.604 42.5844 21.328 41.6724 21.328C40.7604 21.328 40.0404 21.676 39.5124 22.372C39.0084 23.044 38.7564 24.004 38.7564 25.252H32.8164C32.8644 23.212 33.2964 21.508 34.1124 20.14C34.9524 18.772 36.0444 17.764 37.3884 17.116C38.7564 16.468 40.2684 16.144 41.9244 16.144C44.7804 16.144 46.9284 16.876 48.3684 18.34C49.8324 19.804 50.5644 21.712 50.5644 24.064C50.5644 26.632 49.6884 29.02 47.9364 31.228C46.1844 33.412 43.9524 35.548 41.2404 37.636H50.9604V42.64H32.8884V38.068Z" fill="url(#paint1_linear_169_23)"/>
<defs>
<linearGradient id="paint0_linear_169_23" x1="-40.5" y1="107.625" x2="37.125" y2="23.625" gradientUnits="userSpaceOnUse">
<stop/>
<stop offset="1" stop-opacity="0"/>
</linearGradient>
<linearGradient id="paint1_linear_169_23" x1="8" y1="30" x2="53" y2="30" gradientUnits="userSpaceOnUse">
<stop stop-color="#22D3EE"/>
<stop offset="0.989583" stop-color="#2563EB"/>
</linearGradient>
</defs>
</svg>
