<svg width="84" height="84" viewBox="0 0 84 84" fill="none" xmlns="http://www.w3.org/2000/svg">
<g style="mix-blend-mode:soft-light" filter="url(#filter0_f_162_34)">
<path d="M74.5752 74.5752C71.702 77.4484 68.0252 78.9518 62.7866 79.7204C57.4973 80.4963 50.8066 80.5 42 80.5C33.1934 80.5 26.5027 80.4963 21.2134 79.7204C15.9748 78.9518 12.298 77.4484 9.4248 74.5752C6.55163 71.702 5.04818 68.0252 4.27963 62.7866C3.50366 57.4973 3.5 50.8066 3.5 42C3.5 33.1934 3.50366 26.5027 4.27963 21.2134C5.04818 15.9748 6.55163 12.298 9.4248 9.4248C12.298 6.55163 15.9748 5.04818 21.2134 4.27963C26.5027 3.50366 33.1934 3.5 42 3.5C50.8066 3.5 57.4973 3.50366 62.7866 4.27963C68.0252 5.04818 71.702 6.55163 74.5752 9.4248C77.4484 12.298 78.9518 15.9748 79.7204 21.2134C80.4963 26.5027 80.5 33.1934 80.5 42C80.5 50.8066 80.4963 57.4973 79.7204 62.7866C78.9518 68.0252 77.4484 71.702 74.5752 74.5752Z" stroke="url(#paint0_linear_162_34)" stroke-width="3"/>
</g>
<path d="M42 82C59.5278 82 69.2717 82 75.6359 75.6359C82 69.2717 82 59.5278 82 42C82 24.4722 82 14.7283 75.6359 8.36414C69.2717 2 59.5278 2 42 2C24.4722 2 14.7283 2 8.36414 8.36414C2 14.7283 2 24.4722 2 42C2 59.5278 2 69.2717 8.36414 75.6359C14.7283 82 24.4722 82 42 82Z" fill="url(#paint1_linear_162_34)"/>
<g style="mix-blend-mode:overlay">
<path d="M42 82C59.5278 82 69.2717 82 75.6359 75.6359C82 69.2717 82 59.5278 82 42C82 24.4722 82 14.7283 75.6359 8.36414C69.2717 2 59.5278 2 42 2C24.4722 2 14.7283 2 8.36414 8.36414C2 14.7283 2 24.4722 2 42C2 59.5278 2 69.2717 8.36414 75.6359C14.7283 82 24.4722 82 42 82Z" fill="url(#paint2_linear_162_34)"/>
</g>
<g style="mix-blend-mode:overlay">
<path d="M42 82C59.5278 82 69.2717 82 75.6359 75.6359C82 69.2717 82 59.5278 82 42C82 24.4722 82 14.7283 75.6359 8.36414C69.2717 2 59.5278 2 42 2C24.4722 2 14.7283 2 8.36414 8.36414C2 14.7283 2 24.4722 2 42C2 59.5278 2 69.2717 8.36414 75.6359C14.7283 82 24.4722 82 42 82Z" fill="url(#paint3_linear_162_34)"/>
</g>
<path d="M28.6667 59.3333L28.6667 60.3334L28.6767 60.3333L28.6667 59.3333ZM26.3219 38.2585L26.5408 39.2343C27.0795 39.1134 27.4183 38.5789 27.2977 38.0401L26.3219 38.2585ZM52.4005 32.6693L51.4205 32.868C51.5165 33.3414 51.9372 33.6785 52.4201 33.6691L52.4005 32.6693ZM55.3333 59.0667L55.3433 60.0666C55.4068 60.066 55.4701 60.0593 55.5323 60.0467L55.3333 59.0667ZM22.6262 61.2929C22.2357 61.6834 22.2357 62.3166 22.6262 62.7071C23.0168 63.0976 23.6499 63.0976 24.0404 62.7071L22.6262 61.2929ZM28.6667 58.3333C23.3279 58.3333 19 54.0053 19 48.6667H17C17 55.1099 22.2233 60.3333 28.6667 60.3333V58.3333ZM19 48.6667C19 44.0591 22.2244 40.2025 26.5408 39.2343L26.103 37.2828C20.8933 38.4514 17 43.103 17 48.6667H19ZM27.2977 38.0401C27.103 37.17 27 36.2643 27 35.3333H25C25 36.4122 25.1194 37.4644 25.346 38.477L27.2977 38.0401ZM27 35.3333C27 28.5218 32.5218 23 39.3333 23V21C31.4173 21 25 27.4173 25 35.3333H27ZM39.3333 23C45.2998 23 50.2787 27.2377 51.4205 32.868L53.3806 32.4705C52.0535 25.9263 46.2698 21 39.3333 21V23ZM52.4201 33.6691C52.5022 33.6675 52.5842 33.6667 52.6667 33.6667V31.6667C52.571 31.6667 52.4759 31.6676 52.381 31.6695L52.4201 33.6691ZM52.6667 33.6667C59.4781 33.6667 65 39.1885 65 46H67C67 38.0839 60.5827 31.6667 52.6667 31.6667V33.6667ZM65 46C65 51.9657 60.7634 56.9439 55.1344 58.0867L55.5323 60.0467C62.075 58.7185 67 52.9356 67 46H65ZM55.3233 58.0667L28.6567 58.3334L28.6767 60.3333L55.3433 60.0666L55.3233 58.0667ZM24.0404 62.7071L37.0503 49.6972L35.636 48.283L22.6262 61.2929L24.0404 62.7071ZM35.6361 49.6973C37.2637 51.3248 39.515 52.3333 42 52.3333V50.3333C40.0668 50.3333 38.3182 49.5509 37.0502 48.283L35.6361 49.6973ZM42 52.3333C46.9707 52.3333 51 48.304 51 43.3333H49C49 47.1994 45.8661 50.3333 42 50.3333V52.3333ZM51 43.3333C51 38.3626 46.9707 34.3333 42 34.3333V36.3333C45.8661 36.3333 49 39.4672 49 43.3333H51ZM42 34.3333C37.0293 34.3333 33 38.3626 33 43.3333H35C35 39.4672 38.1339 36.3333 42 36.3333V34.3333ZM33 43.3333C33 45.8183 34.0085 48.0696 35.636 49.6972L37.0503 48.283C35.7824 47.0152 35 45.2665 35 43.3333H33Z" fill="url(#paint4_linear_162_34)"/>
<defs>
<filter id="filter0_f_162_34" x="0" y="0" width="84" height="84" filterUnits="userSpaceOnUse" color-interpolation-filters="sRGB">
<feFlood flood-opacity="0" result="BackgroundImageFix"/>
<feBlend mode="normal" in="SourceGraphic" in2="BackgroundImageFix" result="shape"/>
<feGaussianBlur stdDeviation="1" result="effect1_foregroundBlur_162_34"/>
</filter>
<linearGradient id="paint0_linear_162_34" x1="82.6164" y1="2" x2="-5.70525" y2="72.3226" gradientUnits="userSpaceOnUse">
<stop stop-color="#22C55E"/>
<stop offset="1" stop-color="#5BFF04"/>
</linearGradient>
<linearGradient id="paint1_linear_162_34" x1="42" y1="2" x2="42" y2="82" gradientUnits="userSpaceOnUse">
<stop stop-color="white"/>
<stop offset="1" stop-color="#F6F8FA"/>
</linearGradient>
<linearGradient id="paint2_linear_162_34" x1="1.06173" y1="2" x2="22.9624" y2="95.7863" gradientUnits="userSpaceOnUse">
<stop stop-opacity="0"/>
<stop offset="0.605667" stop-opacity="0.0781197"/>
<stop offset="1" stop-opacity="0.26"/>
</linearGradient>
<linearGradient id="paint3_linear_162_34" x1="1.06173" y1="2" x2="22.9624" y2="95.7863" gradientUnits="userSpaceOnUse">
<stop offset="0.140625" stop-color="white" stop-opacity="0.26"/>
<stop offset="0.640625" stop-color="white" stop-opacity="0.0781197"/>
<stop offset="1" stop-color="white" stop-opacity="0"/>
</linearGradient>
<linearGradient id="paint4_linear_162_34" x1="18" y1="42" x2="66" y2="42" gradientUnits="userSpaceOnUse">
<stop stop-color="#73E49A"/>
<stop offset="0.989583" stop-color="#1BA049"/>
</linearGradient>
</defs>
</svg>
