<svg width="677" height="92" viewBox="0 0 677 92" fill="none" xmlns="http://www.w3.org/2000/svg">
<g clip-path="url(#clip0_140_54)">
<path d="M27.2911 22.0256V90.6404H52.3988V22.0256H79.6899V2.26599H0V22.0256H27.2911Z" fill="white"/>
<path d="M149.828 62.9045C155.069 60.4608 159.514 56.5973 162.655 51.7557C165.787 46.7311 167.369 40.9001 167.203 34.9872C167.416 28.9317 165.794 22.9526 162.549 17.828C159.304 12.7035 154.586 8.67062 149.009 6.25424C142.391 3.48357 135.263 2.125 128.086 2.26606H87.2405V21.935H126.267C130.437 21.6581 134.568 22.8802 137.911 25.3794C139.224 26.6017 140.254 28.0944 140.93 29.7536C141.605 31.4128 141.91 33.1988 141.823 34.9872C141.916 36.7764 141.614 38.5642 140.939 40.2244C140.263 41.8846 139.229 43.3766 137.911 44.5951C134.543 47.03 130.414 48.1871 126.267 47.8582H87.2405V90.6405H112.348V67.1646H125.994L142.095 90.6405H169.387L149.828 62.9045Z" fill="white"/>
<path d="M239.525 2.26599H214.781L175.573 90.6404H201.226L208.14 73.5093L215.508 55.3813L226.88 26.7389L238.251 55.0187L245.62 73.1468L252.624 90.2778H278.733L239.525 2.26599Z" fill="white"/>
<path d="M298.564 86.471C306.322 90.4465 314.95 92.4399 323.672 92.272C331.2 92.4105 338.672 90.9586 345.596 88.0119C351.979 85.2922 357.577 81.0231 361.879 75.5941L345.869 61.1823C342.017 66.2064 336.493 69.6968 330.29 71.026C324.087 72.3552 317.611 71.436 312.028 68.4335C308.126 66.4242 304.947 63.2569 302.931 59.3695C300.894 55.2694 299.834 50.7562 299.834 46.1813C299.834 41.6064 300.894 37.0933 302.931 32.9931C304.985 29.1333 308.154 25.976 312.028 23.9291C315.991 21.7894 320.438 20.6972 324.945 20.7567C328.983 20.8294 332.954 21.7939 336.572 23.5808C340.19 25.3676 343.366 27.9323 345.869 31.0897L361.879 16.6779C357.495 11.3549 351.918 7.1324 345.596 4.35077C338.667 1.40901 331.203 -0.0723023 323.672 3.04878e-05C314.935 -0.108143 306.307 1.94747 298.564 5.9823C291.464 9.74753 285.546 15.3935 281.462 22.2976C277.185 29.4741 275.01 37.7007 275.185 46.0453C275.01 54.39 277.185 62.6166 281.462 69.7931C285.477 76.8427 291.404 82.6228 298.564 86.471Z" fill="white"/>
<path d="M393.173 22.0256V90.6404H417.917V22.0256H445.208V2.26599H365.882V22.0256H393.173Z" fill="white"/>
<path d="M453.122 2.26599V90.6404H478.23V2.26599H453.122Z" fill="white"/>
<path d="M547.731 2.26599H522.987L483.779 90.6404H509.433L516.438 73.5093L523.715 55.3813L535.177 27.1015L546.549 55.3813L553.917 73.5093L560.922 90.6404H587.03L547.731 2.26599Z" fill="white"/>
<path d="M592.489 90.6404H617.142V64.264L592.671 33.0837L592.489 90.6404ZM652.347 2.26599V27.6453L676.909 57.1941V2.26599H652.347ZM652.347 49.399L613.139 2.26599H592.489V13.9586L617.142 43.5074L656.259 90.6404H677V80.398L652.347 49.2177V49.399Z" fill="white"/>
</g>
<defs>
<clipPath id="clip0_140_54">
<rect width="677" height="92" fill="white"/>
</clipPath>
</defs>
</svg>
